SplineFontDB: 3.0
FontName: OxygenSans-Bold
FullName: Oxygen Sans Bold
FamilyName: OxygenSans
Weight: Bold
Copyright: Copyright 2009-2012 vernon adams.
Version: 1.001;PS (version unavailable);hotconv 1.0.57;makeotf.lib2.0.21895 DEVELOPMENT
ItalicAngle: 0
UnderlinePosition: 0
UnderlineWidth: 0
Ascent: 1548
Descent: 500
UFOAscent: 1548
UFODescent: -500
LayerCount: 2
Layer: 0 0 "Back"  1
Layer: 1 0 "Fore"  0
FSType: 4
OS2Version: 0
OS2_WeightWidthSlopeOnly: 0
OS2_UseTypoMetrics: 0
CreationTime: 1344283266
ModificationTime: 1344766324
PfmFamily: 17
TTFWeight: 700
TTFWidth: 5
LineGap: 0
VLineGap: 0
Panose: 0 0 0 0 0 0 0 0 0 0
OS2TypoAscent: 1901
OS2TypoAOffset: 0
OS2TypoDescent: -483
OS2TypoDOffset: 0
OS2TypoLinegap: 0
OS2WinAscent: 1901
OS2WinAOffset: 0
OS2WinDescent: 483
OS2WinDOffset: 0
HheadAscent: 1901
HheadAOffset: 0
HheadDescent: -483
HheadDOffset: 0
OS2SubXSize: 1331
OS2SubYSize: 1228
OS2SubXOff: 0
OS2SubYOff: 153
OS2SupXSize: 1331
OS2SupYSize: 1228
OS2SupXOff: 0
OS2SupYOff: 716
OS2StrikeYSize: 50
OS2StrikeYPos: 610
OS2Vendor: 'newt'
OS2CodePages: 2000019f.00000000
OS2UnicodeRanges: 0000008f.00000000.00000000.00000000
Lookup: 258 0 0 "'kern' Horizontal Kerning in Latin lookup 0"  {"'kern' Horizontal Kerning in Latin lookup 0 subtable"  } ['kern' ('latn' <'dflt' > ) ]
MarkAttachClasses: 1
DEI: 91125
LangName: 1033 "" "" "" "1.001;newt;OxygenSans-Bold" "" "Version 1.001;PS (version unavailable);hotconv 1.0.57;makeotf.lib2.0.21895 DEVELOPMENT" "" "" "" "Vernon Adams" "" "" "" "" "http://scripts.sil.org/OFL" 
PickledData: "(dp1
S'com.schriftgestaltung.weight'
p2
S'Bold'
p3
sS'org.robofab.glyphOrder'
p4
(S'A'
S'Aacute'
S'Abreve'
S'Acircumflex'
S'Adieresis'
S'Agrave'
S'Amacron'
S'Aogonek'
S'Aring'
S'Aringacute'
S'Atilde'
S'AE'
S'AEacute'
S'uni01E2'
S'B'
S'C'
S'Cacute'
S'Ccaron'
S'Ccedilla'
S'Ccircumflex'
S'Cdotaccent'
S'D'
S'Eth'
S'Dcaron'
S'E'
S'Eacute'
S'Ebreve'
S'Ecaron'
S'Ecircumflex'
S'Edieresis'
S'Edotaccent'
S'Egrave'
S'Emacron'
S'Eogonek'
S'F'
S'G'
S'Gbreve'

StartChar: .notdef
Encoding: 65536 -1 0
Width: 1024
VWidth: 0
Flags: HW
LayerCount: 2
Fore
SplineSet
102 -500 m 1
 922 -500 l 1
 922 1501 l 1
 102 1501 l 1
 102 -500 l 1
204 -398 m 1
 204 1399 l 1
 820 1399 l 1
 820 -398 l 1
 204 -398 l 1
EndSplineSet
EndChar

StartChar: A
Encoding: 65 65 1
Width: 1233
VWidth: 0
Flags: HW
LayerCount: 2
Fore
SplineSet
481 577 m 1
 503 647 590 957 621 1054 c 1
 653 950 739 642 759 577 c 1
 481 577 l 1
-2 0 m 1
 299 0 l 1
 419 368 l 1
 819 368 l 1
 946 0 l 1
 1235 0 l 1
 786 1342 l 1
 454 1342 l 1
 -2 0 l 1
EndSplineSet
EndChar

StartChar: AE
Encoding: 198 198 2
Width: 1781
VWidth: 0
Flags: HW
LayerCount: 2
Fore
SplineSet
1141 1161 m 1
 1168 785 l 1
 1655 785 l 1
 1655 592 l 1
 1188 592 l 1
 1221 194 l 1
 1723 194 l 1
 1709 0 l 1
 971 0 l 1
 944 334 l 1
 495 334 l 1
 316 0 l 1
 23 0 l 1
 781 1355 l 1
 1692 1355 l 1
 1676 1161 l 1
 1141 1161 l 1
928 538 m 1
 887 1087 l 1
 589 538 l 1
 928 538 l 1
EndSplineSet
EndChar

StartChar: Alpha
Encoding: 913 913 9
Width: 1194
VWidth: 0
Flags: HW
LayerCount: 2
Fore
SplineSet
476 577 m 1
 754 577 l 1
 734 642 648 950 616 1054 c 1
 585 957 498 647 476 577 c 1
941 0 m 1
 814 368 l 1
 414 368 l 1
 294 0 l 1
 -7 0 l 1
 449 1342 l 1
 781 1342 l 1
 1230 0 l 1
 941 0 l 1
EndSplineSet
EndChar

StartChar: Alphatonos
Encoding: 902 902 10
Width: 407
VWidth: 0
Flags: HW
LayerCount: 2
Fore
SplineSet
215 483 m 0
 131 483 87 547 87 610 c 0
 87 673 131 737 215 737 c 0
 300 737 342 673 342 610 c 0
 342 547 300 483 215 483 c 0
EndSplineSet
EndChar

StartChar: B
Encoding: 66 66 16
Width: 1249
VWidth: 0
Flags: HW
LayerCount: 2
Fore
SplineSet
437 1122 m 1
 582 1122 l 2
 768 1122 855 1093 855 956 c 0
 855 834 781 793 630 793 c 2
 437 793 l 1
 437 1122 l 1
437 604 m 1
 627 604 l 2
 812 604 895 554 895 412 c 0
 895 270 810 220 633 220 c 2
 437 220 l 1
 437 604 l 1
149 0 m 1
 685 0 l 2
 986 0 1183 133 1183 393 c 0
 1183 551 1091 665 948 715 c 1
 1092 783 1135 919 1135 1000 c 0
 1135 1254 946 1342 616 1342 c 2
 149 1342 l 1
 149 0 l 1
EndSplineSet
EndChar

StartChar: Beta
Encoding: 914 914 17
Width: 1169
VWidth: 0
Flags: HW
LayerCount: 2
Fore
SplineSet
118 0 m 1
 118 1342 l 1
 585 1342 l 2
 915 1342 1104 1254 1104 1000 c 0
 1104 919 1061 783 917 715 c 1
 1060 665 1152 551 1152 393 c 0
 1152 133 955 0 654 0 c 2
 118 0 l 1
406 604 m 1
 406 220 l 1
 602 220 l 2
 779 220 864 270 864 412 c 0
 864 554 781 604 596 604 c 2
 406 604 l 1
406 1122 m 1
 406 793 l 1
 599 793 l 2
 750 793 824 834 824 956 c 0
 824 1093 737 1122 551 1122 c 2
 406 1122 l 1
EndSplineSet
EndChar

StartChar: C
Encoding: 67 67 18
Width: 1166
VWidth: 0
Flags: HW
LayerCount: 2
Fore
SplineSet
731 -16 m 0
 354 -16 90 240 90 677 c 0
 90 1091 360 1358 735 1358 c 0
 874 1358 1005 1328 1124 1249 c 1
 1041 1048 l 1
 953 1097 880 1129 762 1129 c 0
 543 1129 378 963 378 671 c 0
 378 380 515 213 772 213 c 0
 871 213 968 238 1062 293 c 1
 1098 75 l 1
 974 13 876 -16 731 -16 c 0
EndSplineSet
EndChar

StartChar: Chi
Encoding: 935 935 24
Width: 1174
VWidth: 0
Flags: HW
LayerCount: 2
Fore
SplineSet
800 682 m 1
 1236 1342 l 1
 955 1342 l 1
 648 856 l 1
 349 1342 l 1
 54 1342 l 1
 481 687 l 1
 22 0 l 1
 308 0 l 1
 636 508 l 1
 956 0 l 1
 1258 0 l 1
 800 682 l 1
EndSplineSet
EndChar

StartChar: D
Encoding: 68 68 25
Width: 1391
VWidth: 0
Flags: HW
LayerCount: 2
Fore
SplineSet
437 1122 m 1
 437 220 l 1
 584 220 l 2
 874 220 1014 377 1014 671 c 0
 1014 992 866 1122 558 1122 c 2
 437 1122 l 1
149 0 m 1
 149 1342 l 1
 547 1342 l 2
 996 1342 1301 1130 1301 676 c 0
 1301 238 1013 0 570 0 c 2
 149 0 l 1
EndSplineSet
EndChar

StartChar: Delta
Encoding: 916 916 27
Width: 1110
VWidth: 0
Flags: HW
LayerCount: 2
Fore
SplineSet
-16 0 m 1
 455 1375 l 1
 675 1375 l 1
 1146 0 l 1
 -16 0 l 1
872 187 m 1
 566 1131 l 1
 265 187 l 1
 872 187 l 1
EndSplineSet
EndChar

StartChar: E
Encoding: 69 69 28
Width: 1084
VWidth: 0
Flags: HW
LayerCount: 2
Fore
SplineSet
437 1122 m 1
 437 805 l 1
 941 805 l 1
 941 595 l 1
 437 595 l 1
 437 220 l 1
 989 220 l 1
 982 0 l 1
 149 0 l 1
 149 1342 l 1
 979 1342 l 1
 968 1122 l 1
 437 1122 l 1
EndSplineSet
EndChar

StartChar: Eng
Encoding: 330 330 37
Width: 1246
VWidth: 0
Flags: HW
LayerCount: 2
Fore
SplineSet
738 -305 m 0
 732 -305 692 -305 657 -301 c 1
 637 -75 l 1
 677 -78 737 -79 742 -79 c 0
 901 -79 928 -27 928 139 c 2
 928 864 l 2
 928 1077 869 1155 722 1155 c 0
 616 1155 463 1099 384 963 c 1
 384 0 l 1
 96 0 l 1
 96 1342 l 1
 352 1342 l 1
 374 1195 l 1
 467 1297 640 1363 782 1363 c 0
 1071 1363 1216 1177 1216 874 c 2
 1216 143 l 2
 1216 -148 1082 -305 738 -305 c 0
EndSplineSet
EndChar

StartChar: Epsilon
Encoding: 917 917 39
Width: 1009
VWidth: 0
Flags: HW
LayerCount: 2
Fore
SplineSet
416 1122 m 1
 416 805 l 1
 920 805 l 1
 920 595 l 1
 416 595 l 1
 416 220 l 1
 968 220 l 1
 961 0 l 1
 128 0 l 1
 128 1342 l 1
 958 1342 l 1
 947 1122 l 1
 416 1122 l 1
EndSplineSet
EndChar

StartChar: Epsilontonos
Encoding: 904 904 40
Width: 407
VWidth: 0
Flags: HW
LayerCount: 2
Fore
SplineSet
215 483 m 0
 131 483 87 547 87 610 c 0
 87 673 131 737 215 737 c 0
 300 737 342 673 342 610 c 0
 342 547 300 483 215 483 c 0
EndSplineSet
EndChar

StartChar: Eta
Encoding: 919 919 41
Width: 1337
VWidth: 0
Flags: HW
LayerCount: 2
Fore
SplineSet
962 804 m 1
 962 1342 l 1
 1250 1342 l 1
 1250 0 l 1
 962 0 l 1
 962 578 l 1
 418 578 l 1
 418 0 l 1
 130 0 l 1
 130 1342 l 1
 418 1342 l 1
 418 804 l 1
 962 804 l 1
EndSplineSet
EndChar

StartChar: Etatonos
Encoding: 905 905 42
Width: 407
VWidth: 0
Flags: HW
LayerCount: 2
Fore
SplineSet
215 483 m 0
 131 483 87 547 87 610 c 0
 87 673 131 737 215 737 c 0
 300 737 342 673 342 610 c 0
 342 547 300 483 215 483 c 0
EndSplineSet
EndChar

StartChar: Eth
Encoding: 208 208 43
Width: 1340
VWidth: 0
Flags: HW
LayerCount: 2
Fore
SplineSet
367 590 m 1
 367 211 l 1
 565 211 l 2
 862 211 1027 372 1027 669 c 0
 1027 1025 842 1135 484 1135 c 2
 367 1135 l 1
 367 772 l 1
 542 772 l 1
 542 590 l 1
 367 590 l 1
110 768 m 1
 110 1340 l 1
 467 1340 l 2
 948 1340 1288 1163 1288 668 c 0
 1288 230 984 1 549 1 c 2
 110 1 l 1
 110 586 l 1
 -1 586 l 1
 -1 768 l 1
 110 768 l 1
EndSplineSet
EndChar

StartChar: Euro
Encoding: 8364 8364 44
Width: 1061
VWidth: 0
Flags: HW
LayerCount: 2
Fore
SplineSet
993 89 m 1
 908 29 812 -8 686 -8 c 0
 376 -8 232 216 190 467 c 1
 64 467 l 1
 90 642 l 1
 172 642 l 1
 172 683 l 1
 159 686 91 695 89 713 c 1
 83 854 l 1
 170 878 l 1
 214 1060 358 1218 589 1220 c 1
 692 1288 810 1309 943 1247 c 1
 978 1239 961 1123 967 1094 c 0
 967 1092 968 1090 968 1089 c 2
 970 1084 l 1
 953 1076 l 1
 950 1080 l 1
 947 1086 l 1
 902 1145 839 1141 773 1141 c 2
 772 1141 l 1
 657 1155 538 1090 499 966 c 1
 552 957 791 930 796 874 c 1
 901 728 l 1
 502 704 l 1
 492 701 417 699 392 696 c 1
 392 642 l 1
 886 642 l 1
 862 467 l 1
 412 467 l 1
 449 288 561 182 710 182 c 0
 799 182 893 218 981 289 c 1
 998 301 l 1
 998 91 l 1
 993 89 l 1
EndSplineSet
EndChar

StartChar: F
Encoding: 70 70 45
Width: 1034
VWidth: 0
Flags: HW
LayerCount: 2
Fore
SplineSet
437 1122 m 1
 437 771 l 1
 926 771 l 1
 926 562 l 1
 437 562 l 1
 437 0 l 1
 149 0 l 1
 149 1342 l 1
 961 1342 l 1
 952 1122 l 1
 437 1122 l 1
EndSplineSet
EndChar

StartChar: G
Encoding: 71 71 46
Width: 1319
VWidth: 0
Flags: HW
LayerCount: 2
Fore
SplineSet
729 -16 m 0
 912 -16 1051 17 1199 82 c 1
 1199 727 l 1
 683 727 l 1
 683 519 l 1
 952 519 l 1
 952 245 l 1
 889 222 818 213 739 213 c 0
 484 213 378 383 378 670 c 0
 378 964 512 1129 767 1129 c 0
 891 1129 997 1101 1094 1053 c 1
 1181 1253 l 1
 1053 1317 926 1358 762 1358 c 0
 340 1358 90 1080 90 672 c 0
 90 248 329 -16 729 -16 c 0
EndSplineSet
EndChar

StartChar: H
Encoding: 72 72 52
Width: 1418
VWidth: 0
Flags: HW
LayerCount: 2
Fore
SplineSet
437 804 m 1
 437 1342 l 1
 149 1342 l 1
 149 0 l 1
 437 0 l 1
 437 578 l 1
 981 578 l 1
 981 0 l 1
 1269 0 l 1
 1269 1342 l 1
 981 1342 l 1
 981 804 l 1
 437 804 l 1
EndSplineSet
EndChar

StartChar: Hbar
Encoding: 294 294 53
Width: 1311
VWidth: 0
Flags: HW
LayerCount: 2
Fore
SplineSet
110 1205 m 1
 110 1335 l 1
 367 1335 l 1
 367 1205 l 1
 962 1205 l 1
 962 1335 l 1
 1220 1335 l 1
 1220 1205 l 1
 1295 1205 l 1
 1295 1068 l 1
 1220 1068 l 1
 1220 0 l 1
 962 0 l 1
 962 595 l 1
 367 595 l 1
 367 0 l 1
 110 0 l 1
 110 1068 l 1
 35 1068 l 1
 35 1205 l 1
 110 1205 l 1
367 788 m 1
 962 788 l 1
 962 1068 l 1
 367 1068 l 1
 367 788 l 1
EndSplineSet
EndChar

StartChar: I
Encoding: 73 73 55
Width: 702
VWidth: 0
Flags: HW
LayerCount: 2
Fore
SplineSet
149 0 m 1
 149 1342 l 1
 437 1342 l 1
 437 0 l 1
 149 0 l 1
EndSplineSet
EndChar

StartChar: IJ
Encoding: 306 306 56
Width: 1083
VWidth: 0
Flags: HW
LayerCount: 2
Fore
SplineSet
130 0 m 1
 130 1342 l 1
 418 1342 l 1
 418 0 l 1
 130 0 l 1
501 -285 m 1
 489 -75 l 1
 528 -82 569 -84 592 -84 c 0
 724 -84 751 -21 751 126 c 2
 751 1342 l 1
 1039 1342 l 1
 1039 144 l 2
 1039 -153 910 -293 594 -293 c 0
 564 -293 532 -292 501 -285 c 1
EndSplineSet
EndChar

StartChar: Iota
Encoding: 921 921 65
Width: 527
VWidth: 0
Flags: HW
LayerCount: 2
Fore
SplineSet
130 0 m 1
 130 1342 l 1
 418 1342 l 1
 418 0 l 1
 130 0 l 1
EndSplineSet
EndChar

StartChar: Iotadieresis
Encoding: 938 938 66
Width: 527
VWidth: 0
Flags: HW
LayerCount: 2
Fore
SplineSet
154 1699 m 1
 154 1454 l 1
 -40 1454 l 1
 -40 1699 l 1
 154 1699 l 1
529 1699 m 1
 529 1454 l 1
 336 1454 l 1
 336 1699 l 1
 529 1699 l 1
130 0 m 1
 130 1342 l 1
 418 1342 l 1
 418 0 l 1
 130 0 l 1
EndSplineSet
EndChar

StartChar: Iotatonos
Encoding: 906 906 67
Width: 407
VWidth: 0
Flags: HW
LayerCount: 2
Fore
SplineSet
215 483 m 0
 131 483 87 547 87 610 c 0
 87 673 131 737 215 737 c 0
 300 737 342 673 342 610 c 0
 342 547 300 483 215 483 c 0
EndSplineSet
EndChar

StartChar: J
Encoding: 74 74 69
Width: 669
VWidth: 0
Flags: HW
LayerCount: 2
Fore
SplineSet
-18 -285 m 1
 13 -292 45 -293 75 -293 c 0
 391 -293 520 -153 520 144 c 2
 520 1342 l 1
 232 1342 l 1
 232 126 l 2
 232 -21 205 -84 73 -84 c 0
 50 -84 9 -82 -30 -75 c 1
 -18 -285 l 1
EndSplineSet
EndChar

StartChar: K
Encoding: 75 75 71
Width: 1264
VWidth: 0
Flags: HW
LayerCount: 2
Fore
SplineSet
437 781 m 1
 437 1342 l 1
 149 1342 l 1
 149 0 l 1
 437 0 l 1
 437 532 l 1
 518 606 l 1
 911 0 l 1
 1247 0 l 1
 745 738 l 1
 1237 1342 l 1
 905 1342 l 1
 905 1342 473 825 437 781 c 1
EndSplineSet
EndChar

StartChar: Kappa
Encoding: 922 922 72
Width: 1179
VWidth: 0
Flags: HW
LayerCount: 2
Fore
SplineSet
416 516 m 1
 416 0 l 1
 128 0 l 1
 128 1342 l 1
 416 1342 l 1
 416 765 l 1
 532 918 771 1195 882 1334 c 1
 884 1342 l 1
 1196 1342 l 1
 700 737 l 1
 1226 0 l 1
 919 0 l 1
 503 589 l 1
 474 565 446 541 416 516 c 1
EndSplineSet
EndChar

StartChar: L
Encoding: 76 76 74
Width: 1031
VWidth: 0
Flags: HW
LayerCount: 2
Fore
SplineSet
974 213 m 1
 967 0 l 1
 149 0 l 1
 149 1342 l 1
 437 1342 l 1
 437 213 l 1
 974 213 l 1
EndSplineSet
EndChar

StartChar: Lambda
Encoding: 923 923 76
Width: 1110
VWidth: 0
Flags: HW
LayerCount: 2
Fore
SplineSet
964 0 m 1
 565 1155 l 1
 170 0 l 1
 -17 0 l 1
 476 1370 l 1
 652 1370 l 1
 1146 0 l 1
 964 0 l 1
EndSplineSet
EndChar

StartChar: Ldot
Encoding: 319 319 79
Width: 937
VWidth: 0
Flags: HW
LayerCount: 2
Fore
SplineSet
128 0 m 1
 128 1342 l 1
 416 1342 l 1
 416 213 l 1
 953 213 l 1
 946 0 l 1
 128 0 l 1
EndSplineSet
EndChar

StartChar: Lslash
Encoding: 321 321 80
Width: 885
VWidth: 0
Flags: HW
LayerCount: 2
Fore
SplineSet
649 1029 m 1
 649 845 l 1
 366 678 l 1
 366 203 l 1
 913 203 l 1
 898 0 l 1
 111 0 l 1
 111 524 l 1
 -24 443 l 1
 -24 634 l 1
 111 714 l 1
 111 1340 l 1
 366 1340 l 1
 366 869 l 1
 646 1032 l 1
 649 1029 l 1
EndSplineSet
EndChar

StartChar: M
Encoding: 77 77 81
Width: 1674
VWidth: 0
Flags: HW
LayerCount: 2
Fore
SplineSet
1236 1342 m 1
 1525 1342 l 1
 1525 0 l 1
 1245 0 l 1
 1245 500 l 1
 1251 810 l 1
 940 109 l 1
 720 109 l 1
 423 816 l 1
 429 497 l 1
 429 0 l 1
 149 0 l 1
 149 1342 l 1
 443 1342 l 1
 837 432 l 1
 1236 1342 l 1
EndSplineSet
EndChar

StartChar: Mu
Encoding: 924 924 82
Width: 1621
VWidth: 0
Flags: HW
LayerCount: 2
Fore
SplineSet
1223 1342 m 1
 1522 1342 l 1
 1522 0 l 1
 1278 0 l 1
 1278 658 l 1
 1284 968 l 1
 1271 929 l 1
 940 89 l 1
 720 89 l 1
 396 934 l 1
 382 974 l 1
 388 655 l 1
 388 0 l 1
 152 0 l 1
 152 1342 l 1
 453 1342 l 1
 837 407 l 1
 1223 1342 l 1
EndSplineSet
EndChar

StartChar: N
Encoding: 78 78 83
Width: 1427
VWidth: 0
Flags: HW
LayerCount: 2
Fore
SplineSet
441 1342 m 1
 149 1342 l 1
 149 0 l 1
 430 0 l 1
 430 409 l 2
 430 430 402 945 402 945 c 1
 975 0 l 1
 1278 0 l 1
 1278 1342 l 1
 996 1342 l 1
 996 801 l 2
 996 793 1015 384 1015 384 c 1
 441 1342 l 1
EndSplineSet
EndChar

StartChar: Nu
Encoding: 925 925 88
Width: 1367
VWidth: 0
Flags: HW
LayerCount: 2
Fore
SplineSet
1015 384 m 1
 1014 461 996 793 996 801 c 2
 996 1342 l 1
 1282 1342 l 1
 1282 0 l 1
 975 0 l 1
 387 945 l 1
 387 945 415 430 415 409 c 2
 415 0 l 1
 130 0 l 1
 130 1342 l 1
 426 1342 l 1
 1015 384 l 1
EndSplineSet
EndChar

StartChar: O
Encoding: 79 79 89
Width: 1478
VWidth: 0
Flags: HW
LayerCount: 2
Fore
SplineSet
1388 671 m 0
 1388 1105 1129 1359 738 1359 c 0
 347 1359 90 1107 90 671 c 0
 90 239 344 -16 737 -16 c 0
 1129 -16 1388 241 1388 671 c 0
738 212 m 0
 490 212 378 395 378 669 c 0
 378 948 492 1129 739 1129 c 0
 985 1129 1100 948 1100 669 c 0
 1100 395 986 212 738 212 c 0
EndSplineSet
EndChar

StartChar: OE
Encoding: 338 338 90
Width: 1922
VWidth: 0
Flags: HW
LayerCount: 2
Fore
SplineSet
727 -17 m 0
 338 -17 65 274 65 676 c 1
 68 1073 349 1363 722 1363 c 0
 844 1363 945 1332 1030 1278 c 1
 1030 1338 l 1
 1879 1338 l 1
 1861 1133 l 1
 1277 1133 l 1
 1277 798 l 1
 1835 798 l 1
 1835 596 l 1
 1277 596 l 1
 1277 208 l 1
 1905 208 l 1
 1887 4 l 1
 1030 4 l 1
 1030 67 l 1
 954 19 842 -17 727 -17 c 0
725 187 m 0
 863 187 969 235 1030 289 c 1
 1030 1048 l 1
 966 1111 863 1160 722 1160 c 0
 461 1160 320 928 318 672 c 1
 318 415 451 188 725 187 c 0
EndSplineSet
EndChar

StartChar: Omegatonos
Encoding: 911 911 99
Width: 407
VWidth: 0
Flags: HW
LayerCount: 2
Fore
SplineSet
215 483 m 0
 131 483 87 547 87 610 c 0
 87 673 131 737 215 737 c 0
 300 737 342 673 342 610 c 0
 342 547 300 483 215 483 c 0
EndSplineSet
EndChar

StartChar: Omicron
Encoding: 927 927 100
Width: 1431
VWidth: 0
Flags: HW
LayerCount: 2
Fore
SplineSet
737 -16 m 0
 344 -16 90 239 90 671 c 0
 90 1107 347 1359 738 1359 c 0
 1129 1359 1388 1105 1388 671 c 0
 1388 241 1129 -16 737 -16 c 0
738 212 m 0
 986 212 1100 395 1100 669 c 0
 1100 948 985 1129 739 1129 c 0
 492 1129 378 948 378 669 c 0
 378 395 490 212 738 212 c 0
EndSplineSet
EndChar

StartChar: Omicrontonos
Encoding: 908 908 101
Width: 407
VWidth: 0
Flags: HW
LayerCount: 2
Fore
SplineSet
215 483 m 0
 131 483 87 547 87 610 c 0
 87 673 131 737 215 737 c 0
 300 737 342 673 342 610 c 0
 342 547 300 483 215 483 c 0
EndSplineSet
EndChar

StartChar: Oslash
Encoding: 216 216 102
Width: 1435
VWidth: 0
Flags: HW
LayerCount: 2
Fore
SplineSet
429 -179 m 1
 324 -134 l 1
 405 54 l 1
 196 161 65 381 65 678 c 0
 65 1115 342 1377 729 1377 c 0
 810 1377 883 1366 954 1344 c 1
 1034 1530 l 1
 1145 1486 l 1
 1065 1296 l 1
 1264 1186 1388 972 1388 676 c 0
 1388 247 1116 -18 725 -18 c 0
 650 -18 579 -9 512 10 c 1
 429 -179 l 1
496 278 m 1
 866 1137 l 1
 828 1150 779 1158 728 1158 c 0
 461 1158 329 959 329 682 c 0
 329 502 384 359 496 278 c 1
728 194 m 0
 995 194 1128 386 1128 666 c 0
 1128 840 1077 982 971 1065 c 1
 601 212 l 1
 636 201 681 194 728 194 c 0
EndSplineSet
EndChar

StartChar: P
Encoding: 80 80 105
Width: 1218
VWidth: 0
Flags: HW
LayerCount: 2
Fore
SplineSet
149 0 m 1
 149 1342 l 1
 620 1342 l 2
 919 1342 1141 1205 1141 919 c 0
 1141 677 1009 482 620 482 c 0
 568 482 504 483 437 489 c 1
 437 0 l 1
 149 0 l 1
594 677 m 0
 839 677 853 798 853 911 c 0
 853 1053 782 1122 621 1122 c 2
 437 1122 l 1
 437 678 l 1
 465 677 548 677 594 677 c 0
EndSplineSet
EndChar

StartChar: Phi
Encoding: 934 934 106
Width: 1462
VWidth: 0
Flags: HW
LayerCount: 2
Fore
SplineSet
824 0 m 1
 649 0 l 1
 649 154 l 1
 282 186 84 411 84 706 c 0
 84 1004 290 1214 649 1244 c 1
 649 1370 l 1
 824 1370 l 1
 824 1244 l 1
 1182 1215 1394 1007 1394 706 c 0
 1394 412 1197 185 824 154 c 1
 824 0 l 1
649 317 m 1
 649 1081 l 1
 398 1054 271 913 271 706 c 0
 271 508 385 347 649 317 c 1
824 1081 m 1
 824 317 l 1
 1087 346 1206 505 1206 706 c 0
 1206 910 1081 1055 824 1081 c 1
EndSplineSet
EndChar

StartChar: Pi
Encoding: 928 928 107
Width: 1288
VWidth: 0
Flags: HW
LayerCount: 2
Fore
SplineSet
1001 0 m 1
 1001 1215 l 1
 302 1215 l 1
 302 0 l 1
 125 0 l 1
 125 1370 l 1
 1178 1370 l 1
 1178 0 l 1
 1001 0 l 1
EndSplineSet
EndChar

StartChar: Psi
Encoding: 936 936 108
Width: 407
VWidth: 0
Flags: HW
LayerCount: 2
Fore
SplineSet
215 483 m 0
 131 483 87 547 87 610 c 0
 87 673 131 737 215 737 c 0
 300 737 342 673 342 610 c 0
 342 547 300 483 215 483 c 0
EndSplineSet
EndChar

StartChar: Q
Encoding: 81 81 109
Width: 1478
VWidth: 0
Flags: HW
LayerCount: 2
Fore
SplineSet
1287 -281 m 1
 1118 -428 l 1
 1008 -350 873 -156 796 -14 c 1
 777 -15 757 -16 737 -16 c 0
 344 -16 90 239 90 671 c 0
 90 1107 347 1358 738 1358 c 0
 1129 1358 1388 1105 1388 671 c 0
 1388 363 1255 143 1035 43 c 1
 1080 -32 1176 -170 1287 -281 c 1
738 213 m 0
 986 213 1100 393 1100 669 c 0
 1100 949 985 1129 739 1129 c 0
 492 1129 378 947 378 669 c 0
 378 395 490 213 738 213 c 0
EndSplineSet
EndChar

StartChar: R
Encoding: 82 82 110
Width: 1291
VWidth: 0
Flags: HW
LayerCount: 2
Fore
SplineSet
437 544 m 1
 479 544 612 544 617 544 c 0
 650 544 672 544 689 543 c 1
 704 514 759 395 789 331 c 1
 952 0 l 1
 1255 0 l 1
 1058 407 l 2
 1022 481 985 555 948 603 c 1
 1095 662 1205 770 1205 947 c 0
 1205 1258 974 1342 668 1342 c 2
 149 1342 l 1
 149 0 l 1
 437 0 l 1
 437 544 l 1
437 758 m 1
 437 1122 l 1
 681 1122 l 2
 845 1122 917 1070 917 949 c 0
 917 810 852 758 671 758 c 2
 437 758 l 1
EndSplineSet
EndChar

StartChar: Rho
Encoding: 929 929 114
Width: 1075
VWidth: 0
Flags: HW
LayerCount: 2
Fore
SplineSet
128 0 m 1
 128 1342 l 1
 599 1342 l 2
 898 1342 1120 1205 1120 919 c 0
 1120 677 988 482 599 482 c 0
 547 482 483 483 416 489 c 1
 416 0 l 1
 128 0 l 1
573 677 m 0
 818 677 832 798 832 911 c 0
 832 1053 761 1122 600 1122 c 2
 416 1122 l 1
 416 678 l 1
 444 677 527 677 573 677 c 0
EndSplineSet
EndChar

StartChar: S
Encoding: 83 83 115
Width: 1086
VWidth: 0
Flags: HW
LayerCount: 2
Fore
SplineSet
1012 381 m 0
 1012 598 907 705 672 783 c 1
 464 853 l 2
 403 873 366 915 366 980 c 0
 366 1087 440 1128 573 1128 c 0
 692 1128 804 1088 896 1048 c 1
 977 1255 l 1
 856 1324 722 1358 562 1358 c 0
 294 1358 97 1227 97 975 c 0
 97 785 201 670 363 617 c 2
 587 544 l 2
 684 512 739 464 739 385 c 0
 739 262 670 210 529 210 c 0
 397 210 229 251 147 300 c 1
 82 82 l 1
 198 16 343 -17 519 -17 c 0
 808 -17 1012 119 1012 381 c 0
EndSplineSet
EndChar

StartChar: Sigma
Encoding: 931 931 121
Width: 1009
VWidth: 0
Flags: HW
LayerCount: 2
Fore
SplineSet
416 1122 m 1
 416 805 l 1
 920 805 l 1
 920 595 l 1
 416 595 l 1
 416 220 l 1
 968 220 l 1
 961 0 l 1
 128 0 l 1
 128 1342 l 1
 958 1342 l 1
 947 1122 l 1
 416 1122 l 1
EndSplineSet
EndChar

StartChar: T
Encoding: 84 84 122
Width: 1104
VWidth: 0
Flags: HW
LayerCount: 2
Fore
SplineSet
1064 1342 m 1
 1064 1122 l 1
 695 1122 l 1
 695 0 l 1
 407 0 l 1
 407 1122 l 1
 40 1122 l 1
 40 1342 l 1
 1064 1342 l 1
EndSplineSet
EndChar

StartChar: Tau
Encoding: 932 932 123
Width: 997
VWidth: 0
Flags: HW
LayerCount: 2
Fore
SplineSet
1073 1342 m 1
 1073 1122 l 1
 704 1122 l 1
 704 0 l 1
 416 0 l 1
 416 1122 l 1
 49 1122 l 1
 49 1342 l 1
 1073 1342 l 1
EndSplineSet
EndChar

StartChar: Theta
Encoding: 920 920 125
Width: 407
VWidth: 0
Flags: HW
LayerCount: 2
Fore
SplineSet
215 483 m 0
 131 483 87 547 87 610 c 0
 87 673 131 737 215 737 c 0
 300 737 342 673 342 610 c 0
 342 547 300 483 215 483 c 0
EndSplineSet
EndChar

StartChar: Thorn
Encoding: 222 222 126
Width: 1164
VWidth: 0
Flags: HW
LayerCount: 2
Fore
SplineSet
370 1326 m 1
 370 1126 l 1
 613 1126 l 2
 908 1126 1140 1016 1140 720 c 0
 1140 454 924 310 645 310 c 0
 643 310 423 311 370 311 c 1
 370 16 l 1
 153 16 l 1
 153 1326 l 1
 370 1326 l 1
370 946 m 1
 371 505 l 1
 657 505 l 2
 826 505 921 585 921 725 c 0
 921 882 823 946 632 946 c 2
 370 946 l 1
EndSplineSet
EndChar

StartChar: U
Encoding: 85 85 127
Width: 1376
VWidth: 0
Flags: HW
LayerCount: 2
Fore
SplineSet
1232 484 m 2
 1232 1342 l 1
 944 1342 l 1
 944 505 l 2
 944 310 870 213 688 213 c 0
 512 213 432 309 432 504 c 2
 432 1342 l 1
 144 1342 l 1
 144 485 l 2
 144 170 340 -17 688 -17 c 0
 1035 -17 1232 172 1232 484 c 2
EndSplineSet
EndChar

StartChar: Upsilon
Encoding: 933 933 137
Width: 1101
VWidth: 0
Flags: HW
LayerCount: 2
Fore
SplineSet
584 786 m 1
 886 1342 l 1
 1169 1342 l 1
 714 536 l 1
 714 0 l 1
 454 0 l 1
 454 532 l 1
 0 1342 l 1
 283 1342 l 1
 584 786 l 1
EndSplineSet
EndChar

StartChar: Upsilondieresis
Encoding: 939 939 138
Width: 1101
VWidth: 0
Flags: HW
LayerCount: 2
Fore
SplineSet
473 1699 m 1
 473 1454 l 1
 279 1454 l 1
 279 1699 l 1
 473 1699 l 1
848 1699 m 1
 848 1454 l 1
 655 1454 l 1
 655 1699 l 1
 848 1699 l 1
584 786 m 1
 886 1342 l 1
 1169 1342 l 1
 714 536 l 1
 714 0 l 1
 454 0 l 1
 454 532 l 1
 0 1342 l 1
 283 1342 l 1
 584 786 l 1
EndSplineSet
EndChar

StartChar: Upsilontonos
Encoding: 910 910 139
Width: 407
VWidth: 0
Flags: HW
LayerCount: 2
Fore
SplineSet
215 483 m 0
 131 483 87 547 87 610 c 0
 87 673 131 737 215 737 c 0
 300 737 342 673 342 610 c 0
 342 547 300 483 215 483 c 0
EndSplineSet
EndChar

StartChar: V
Encoding: 86 86 142
Width: 1185
VWidth: 0
Flags: HW
LayerCount: 2
Fore
SplineSet
760 0 m 1
 1188 1342 l 1
 882 1342 l 1
 680 608 l 1
 600 328 l 1
 518 607 l 1
 305 1342 l 1
 -3 1342 l 1
 432 0 l 1
 760 0 l 1
EndSplineSet
EndChar

StartChar: W
Encoding: 87 87 143
Width: 1890
VWidth: 0
Flags: HW
LayerCount: 2
Fore
SplineSet
537 376 m 1
 300 1342 l 1
 18 1342 l 1
 390 0 l 1
 660 0 l 1
 946 963 l 1
 1211 0 l 1
 1483 0 l 1
 1872 1342 l 1
 1591 1342 l 1
 1341 373 l 1
 1075 1336 l 1
 816 1336 l 1
 537 376 l 1
EndSplineSet
EndChar

StartChar: X
Encoding: 88 88 148
Width: 1263
VWidth: 0
Flags: HW
LayerCount: 2
Fore
SplineSet
791 682 m 1
 1227 1342 l 1
 936 1342 l 1
 639 886 l 1
 350 1342 l 1
 45 1342 l 1
 472 687 l 1
 13 0 l 1
 309 0 l 1
 627 456 l 1
 937 0 l 1
 1249 0 l 1
 791 682 l 1
EndSplineSet
EndChar

StartChar: Xi
Encoding: 926 926 149
Width: 407
VWidth: 0
Flags: HW
LayerCount: 2
Fore
SplineSet
215 483 m 0
 131 483 87 547 87 610 c 0
 87 673 131 737 215 737 c 0
 300 737 342 673 342 610 c 0
 342 547 300 483 215 483 c 0
EndSplineSet
EndChar

StartChar: Y
Encoding: 89 89 150
Width: 1157
VWidth: 0
Flags: HW
LayerCount: 2
Fore
SplineSet
297 1342 m 1
 -6 1342 l 1
 437 532 l 1
 437 0 l 1
 719 0 l 1
 719 536 l 1
 1163 1342 l 1
 865 1342 l 1
 578 786 l 1
 297 1342 l 1
EndSplineSet
EndChar

StartChar: Z
Encoding: 90 90 155
Width: 1109
VWidth: 0
Flags: HW
LayerCount: 2
Fore
SplineSet
103 1342 m 1
 103 1122 l 1
 693 1122 l 1
 81 172 l 1
 81 0 l 1
 1039 0 l 1
 1039 220 l 1
 463 220 l 1
 1033 1150 l 1
 1033 1342 l 1
 103 1342 l 1
EndSplineSet
EndChar

StartChar: Zeta
Encoding: 918 918 159
Width: 1060
VWidth: 0
Flags: HW
LayerCount: 2
Fore
SplineSet
93 1342 m 1
 1054 1342 l 1
 1054 1150 l 1
 395 220 l 1
 1060 220 l 1
 1058 0 l 1
 70 0 l 1
 70 172 l 1
 742 1122 l 1
 92 1122 l 1
 93 1342 l 1
EndSplineSet
EndChar

StartChar: a
Encoding: 97 97 160
Width: 1075
VWidth: 0
Flags: HW
LayerCount: 2
Fore
SplineSet
413 -18 m 0
 546 -18 650 42 716 134 c 1
 725 99 748 12 751 0 c 1
 941 0 l 1
 941 660 l 2
 941 927 821 1041 556 1041 c 0
 409 1041 253 1004 132 953 c 1
 138 940 191 793 196 779 c 1
 297 820 451 852 538 852 c 0
 640 852 686 807 686 689 c 2
 686 646 l 1
 621 638 566 633 506 626 c 0
 253 600 94 508 94 284 c 0
 94 77 237 -18 413 -18 c 0
477 166 m 0
 393 166 350 208 350 287 c 0
 350 404 434 450 606 465 c 1
 606 465 665 472 685 474 c 1
 685 291 l 1
 655 228 585 166 477 166 c 0
EndSplineSet
EndChar

StartChar: acute
Encoding: 180 180 164
Width: 541
VWidth: 0
Flags: HW
LayerCount: 2
Fore
SplineSet
163 1081 m 1
 323 1442 l 1
 615 1442 l 1
 320 1081 l 1
 163 1081 l 1
EndSplineSet
EndChar

StartChar: ae
Encoding: 230 230 166
Width: 1478
VWidth: 0
Flags: HW
LayerCount: 2
Fore
SplineSet
1071 859 m 0
 976 859 868 805 849 614 c 1
 1215 646 l 1
 1215 665 l 2
 1215 757 1189 859 1071 859 c 0
402 153 m 0
 489 153 573 197 650 256 c 1
 639 283 617 358 613 421 c 1
 595 418 546 412 544 412 c 2
 543 412 l 1
 367 392 287 369 287 281 c 0
 287 196 325 153 402 153 c 0
744 119 m 1
 661 45 536 -19 368 -19 c 0
 178 -19 59 119 59 297 c 0
 59 526 253 552 542 584 c 1
 608 591 l 1
 608 687 l 2
 608 802 578 855 453 861 c 1
 342 861 221 812 170 792 c 2
 160 788 l 1
 112 969 l 1
 119 973 l 1
 205 1014 306 1045 459 1049 c 1
 604 1051 714 1000 757 901 c 1
 823 983 936 1049 1073 1049 c 0
 1339 1049 1442 822 1442 573 c 0
 1442 509 1381 488 1293 485 c 0
 1261 483 951 458 848 451 c 1
 858 270 939 170 1095 168 c 1
 1207 168 1299 206 1342 240 c 1
 1352 247 l 1
 1424 84 l 1
 1418 79 l 1
 1339 22 1242 -18 1079 -18 c 0
 918 -18 816 32 744 119 c 1
EndSplineSet
EndChar

StartChar: afii10017
Encoding: 1040 1040 168
Width: 1194
VWidth: 0
Flags: HW
LayerCount: 2
Fore
SplineSet
476 577 m 1
 754 577 l 1
 734 642 648 950 616 1054 c 1
 585 957 498 647 476 577 c 1
414 368 m 1
 294 0 l 1
 -7 0 l 1
 449 1342 l 1
 781 1342 l 1
 1230 0 l 1
 941 0 l 1
 814 368 l 1
 414 368 l 1
EndSplineSet
EndChar

StartChar: afii10018
Encoding: 1041 1041 169
Width: 1142
VWidth: 0
Flags: HW
LayerCount: 2
Fore
SplineSet
368 600 m 1
 368 203 l 1
 608 203 l 2
 758 203 847 265 847 402 c 0
 847 537 757 600 607 600 c 2
 368 600 l 1
1101 399 m 0
 1101 115 872 0 595 0 c 2
 110 0 l 1
 110 1335 l 1
 1003 1335 l 1
 1003 1131 l 1
 369 1131 l 1
 368 799 l 1
 618 799 l 2
 883 799 1101 688 1101 399 c 0
EndSplineSet
EndChar

StartChar: afii10020
Encoding: 1043 1043 170
Width: 1283
VWidth: 0
Flags: HW
LayerCount: 2
Fore
SplineSet
938 1133 m 1
 959 1335 l 1
 110 1335 l 1
 110 0 l 1
 368 0 l 1
 368 1133 l 1
 938 1133 l 1
EndSplineSet
EndChar

StartChar: afii10023
Encoding: 1025 1025 171
Width: 1108
VWidth: 0
Flags: HW
LayerCount: 2
Fore
SplineSet
879 1449 m 1
 686 1449 l 1
 686 1694 l 1
 879 1694 l 1
 879 1449 l 1
504 1449 m 1
 310 1449 l 1
 310 1694 l 1
 504 1694 l 1
 504 1449 l 1
EndSplineSet
EndChar

StartChar: afii10025
Encoding: 1047 1047 172
Width: 1097
VWidth: 0
Flags: HW
LayerCount: 2
Fore
SplineSet
114 131 m 1
 139 172 174 250 197 296 c 2
 202 306 l 1
 212 299 l 1
 292 245 418 191 561 191 c 0
 774 191 833 273 833 392 c 0
 833 499 709 583 575 583 c 2
 399 583 l 1
 399 788 l 1
 577 788 l 2
 697 788 791 870 791 970 c 1
 789 1062 702 1152 561 1152 c 0
 417 1152 323 1115 250 1062 c 1
 241 1056 l 1
 145 1233 l 1
 152 1238 l 1
 261 1328 398 1365 567 1365 c 0
 811 1365 1030 1209 1030 1000 c 0
 1030 825 971 736 882 688 c 1
 988 630 1062 511 1062 383 c 0
 1062 138 896 -17 559 -17 c 0
 385 -17 203 29 114 118 c 1
 109 124 l 1
 114 131 l 1
EndSplineSet
EndChar

StartChar: afii10026
Encoding: 1048 1048 173
Width: 1295
VWidth: 0
Flags: HW
LayerCount: 2
Fore
SplineSet
349 426 m 1
 349 1335 l 1
 110 1335 l 1
 110 0 l 1
 335 0 l 1
 969 838 l 1
 969 0 l 1
 1207 0 l 1
 1207 1335 l 1
 979 1335 l 1
 976 1329 l 2
 969 1317 958 1240 956 1231 c 1
 900 1147 453 570 349 426 c 1
EndSplineSet
EndChar

StartChar: afii10028
Encoding: 1050 1050 175
Width: 1179
VWidth: 0
Flags: HW
LayerCount: 2
Fore
SplineSet
416 516 m 1
 416 0 l 1
 128 0 l 1
 128 1342 l 1
 416 1342 l 1
 416 765 l 1
 532 918 771 1195 882 1334 c 1
 884 1342 l 1
 1196 1342 l 1
 700 737 l 1
 1226 0 l 1
 919 0 l 1
 503 589 l 1
 474 565 446 541 416 516 c 1
EndSplineSet
EndChar

StartChar: afii10030
Encoding: 1052 1052 176
Width: 1621
VWidth: 0
Flags: HW
LayerCount: 2
Fore
SplineSet
152 1342 m 1
 453 1342 l 1
 837 407 l 1
 1223 1342 l 1
 1522 1342 l 1
 1522 0 l 1
 1278 0 l 1
 1278 658 l 1
 1284 968 l 1
 1271 929 l 1
 940 89 l 1
 720 89 l 1
 396 934 l 1
 382 974 l 1
 388 655 l 1
 388 0 l 1
 152 0 l 1
 152 1342 l 1
EndSplineSet
EndChar

StartChar: afii10031
Encoding: 1053 1053 177
Width: 1337
VWidth: 0
Flags: HW
LayerCount: 2
Fore
SplineSet
130 0 m 1
 130 1342 l 1
 418 1342 l 1
 418 804 l 1
 962 804 l 1
 962 1342 l 1
 1250 1342 l 1
 1250 0 l 1
 962 0 l 1
 962 578 l 1
 418 578 l 1
 418 0 l 1
 130 0 l 1
EndSplineSet
EndChar

StartChar: afii10033
Encoding: 1055 1055 178
Width: 1278
VWidth: 0
Flags: HW
LayerCount: 2
Fore
SplineSet
368 1141 m 1
 932 1141 l 1
 932 0 l 1
 1191 0 l 1
 1191 1335 l 1
 110 1335 l 1
 110 0 l 1
 368 0 l 1
 368 1141 l 1
EndSplineSet
EndChar

StartChar: afii10035
Encoding: 1057 1057 179
Width: 1141
VWidth: 0
Flags: HW
LayerCount: 2
Fore
SplineSet
1124 1249 m 1
 1041 1048 l 1
 953 1097 880 1129 762 1129 c 0
 543 1129 378 963 378 671 c 0
 378 380 515 213 772 213 c 0
 871 213 968 238 1062 293 c 1
 1098 75 l 1
 974 13 876 -16 731 -16 c 0
 354 -16 90 240 90 677 c 0
 90 1091 360 1358 735 1358 c 0
 874 1358 1005 1328 1124 1249 c 1
EndSplineSet
EndChar

StartChar: afii10036
Encoding: 1058 1058 180
Width: 997
VWidth: 0
Flags: HW
LayerCount: 2
Fore
SplineSet
49 1122 m 1
 49 1342 l 1
 1073 1342 l 1
 1073 1122 l 1
 704 1122 l 1
 704 0 l 1
 416 0 l 1
 416 1122 l 1
 49 1122 l 1
EndSplineSet
EndChar

StartChar: afii10038
Encoding: 1060 1060 181
Width: 1597
VWidth: 0
Flags: HW
LayerCount: 2
Fore
SplineSet
931 0 m 1
 685 0 l 1
 683 145 l 1
 327 157 65 377 65 690 c 0
 65 994 323 1207 683 1219 c 1
 685 1335 l 1
 931 1335 l 1
 931 1219 l 1
 1285 1209 1551 1000 1551 690 c 0
 1551 374 1289 156 931 145 c 1
 931 0 l 1
683 358 m 1
 683 1006 l 1
 442 994 319 851 319 687 c 0
 319 517 439 370 683 358 c 1
931 1006 m 1
 931 358 l 1
 1175 369 1298 516 1298 687 c 0
 1298 850 1179 995 931 1006 c 1
EndSplineSet
EndChar

StartChar: afii10039
Encoding: 1061 1061 182
Width: 1174
VWidth: 0
Flags: HW
LayerCount: 2
Fore
SplineSet
22 0 m 1
 481 687 l 1
 54 1342 l 1
 349 1342 l 1
 648 856 l 1
 955 1342 l 1
 1236 1342 l 1
 800 682 l 1
 1258 0 l 1
 956 0 l 1
 636 508 l 1
 308 0 l 1
 22 0 l 1
EndSplineSet
EndChar

StartChar: afii10040
Encoding: 1062 1062 183
Width: 1357
VWidth: 0
Flags: HW
LayerCount: 2
Fore
SplineSet
1349 -303 m 1
 1349 112 l 1
 1219 112 l 1
 1219 1335 l 1
 961 1335 l 1
 961 194 l 1
 368 194 l 1
 368 1335 l 1
 110 1335 l 1
 110 0 l 1
 1119 0 l 1
 1120 -303 l 1
 1349 -303 l 1
EndSplineSet
EndChar

StartChar: afii10041
Encoding: 1063 1063 184
Width: 1598
VWidth: 0
Flags: HW
LayerCount: 2
Fore
SplineSet
1178 16 m 1
 943 16 l 1
 942 537 l 1
 891 517 729 507 701 507 c 0
 388 507 152 567 152 899 c 2
 152 1326 l 1
 372 1326 l 1
 372 919 l 2
 372 745 464 710 674 710 c 0
 700 710 908 734 943 747 c 1
 943 1326 l 1
 1178 1326 l 1
 1178 16 l 1
EndSplineSet
EndChar

StartChar: afii10042
Encoding: 1064 1064 185
Width: 1617
VWidth: 0
Flags: HW
LayerCount: 2
Fore
SplineSet
707 194 m 1
 707 1335 l 1
 964 1335 l 1
 964 194 l 1
 1271 194 l 1
 1271 1335 l 1
 1530 1335 l 1
 1530 0 l 1
 110 0 l 1
 110 1335 l 1
 368 1335 l 1
 368 194 l 1
 707 194 l 1
EndSplineSet
EndChar

StartChar: afii10043
Encoding: 1065 1065 186
Width: 1670
VWidth: 0
Flags: HW
LayerCount: 2
Fore
SplineSet
707 194 m 1
 707 1335 l 1
 964 1335 l 1
 964 194 l 1
 1272 194 l 1
 1272 1335 l 1
 1530 1335 l 1
 1530 112 l 1
 1658 112 l 1
 1658 -303 l 1
 1429 -303 l 1
 1428 0 l 1
 110 0 l 1
 110 1335 l 1
 368 1335 l 1
 368 194 l 1
 707 194 l 1
EndSplineSet
EndChar

StartChar: afii10044
Encoding: 1066 1066 187
Width: 1362
VWidth: 0
Flags: HW
LayerCount: 2
Fore
SplineSet
568 1326 m 1
 568 859 l 1
 794 859 l 2
 1076 859 1313 742 1313 449 c 0
 1313 158 1142 16 803 16 c 2
 338 16 l 1
 338 1125 l 1
 33 1125 l 1
 33 1326 l 1
 568 1326 l 1
568 660 m 1
 568 219 l 1
 822 219 l 2
 1011 219 1096 304 1096 442 c 0
 1096 573 992 660 813 660 c 2
 568 660 l 1
EndSplineSet
EndChar

StartChar: afii10046
Encoding: 1068 1068 188
Width: 1135
VWidth: 0
Flags: HW
LayerCount: 2
Fore
SplineSet
379 859 m 1
 592 859 l 2
 885 859 1102 716 1102 441 c 0
 1102 167 896 16 596 16 c 2
 153 16 l 1
 153 1326 l 1
 379 1326 l 1
 379 859 l 1
379 219 m 1
 612 219 l 2
 793 219 882 304 882 442 c 0
 882 576 793 660 610 660 c 2
 379 660 l 1
 379 219 l 1
EndSplineSet
EndChar

StartChar: afii10047
Encoding: 1069 1069 189
Width: 1226
VWidth: 0
Flags: HW
LayerCount: 2
Fore
SplineSet
165 300 m 1
 175 293 l 1
 270 229 385 187 494 187 c 0
 705 187 859 330 895 583 c 1
 305 583 l 1
 305 786 l 1
 891 786 l 1
 850 1004 707 1160 494 1160 c 0
 384 1160 272 1117 174 1048 c 1
 165 1041 l 1
 83 1236 l 1
 89 1240 l 1
 217 1323 363 1363 507 1363 c 0
 862 1363 1152 1090 1152 677 c 0
 1152 265 872 -17 511 -17 c 0
 369 -17 225 24 90 103 c 1
 83 108 l 1
 165 300 l 1
EndSplineSet
EndChar

StartChar: afii10048
Encoding: 1070 1070 190
Width: 1472
VWidth: 0
Flags: HW
LayerCount: 2
Fore
SplineSet
1175 -17 m 0
 812 -17 612 253 580 587 c 1
 379 587 l 1
 379 10 l 1
 153 10 l 1
 153 1331 l 1
 379 1331 l 1
 379 791 l 1
 583 791 l 1
 623 1113 822 1363 1173 1363 c 0
 1561 1363 1764 1056 1764 670 c 0
 1764 290 1562 -17 1175 -17 c 0
1174 187 m 0
 1419 187 1524 406 1524 676 c 0
 1524 941 1417 1160 1172 1160 c 0
 930 1160 823 942 823 676 c 0
 823 605 934 187 1174 187 c 0
EndSplineSet
EndChar

StartChar: afii10049
Encoding: 1071 1071 191
Width: 1158
VWidth: 0
Flags: HW
LayerCount: 2
Fore
SplineSet
556 1127 m 2
 389 1127 311 1071 311 945 c 0
 311 807 376 746 562 746 c 2
 809 746 l 1
 809 1127 l 1
 556 1127 l 2
296 600 m 1
 155 660 69 773 69 952 c 0
 69 1253 267 1335 576 1335 c 2
 1068 1335 l 1
 1068 0 l 1
 809 0 l 1
 809 541 l 1
 637 541 l 2
 582 541 549 542 530 541 c 1
 517 514 444 372 421 325 c 2
 268 0 l 1
 -8 0 l 1
 -2 13 l 2
 8 34 168 364 185 399 c 0
 226 483 256 549 296 600 c 1
EndSplineSet
EndChar

StartChar: afii10053
Encoding: 1028 1028 192
Width: 1226
VWidth: 0
Flags: HW
LayerCount: 2
Fore
SplineSet
1145 1240 m 1
 1152 1236 l 1
 1070 1041 l 1
 1060 1048 l 2
 963 1117 851 1160 742 1160 c 0
 530 1160 384 1008 343 786 c 1
 929 786 l 1
 929 583 l 1
 340 583 l 1
 375 334 529 187 741 187 c 0
 850 187 964 229 1059 293 c 1
 1069 300 l 1
 1152 108 l 1
 1145 103 l 1
 1010 24 866 -17 724 -17 c 0
 364 -17 83 265 83 677 c 0
 83 1090 371 1363 729 1363 c 0
 872 1363 1018 1323 1145 1240 c 1
EndSplineSet
EndChar

StartChar: afii10054
Encoding: 1029 1029 193
Width: 1036
VWidth: 0
Flags: HW
LayerCount: 2
Fore
SplineSet
505 -17 m 0
 329 -17 184 16 68 82 c 1
 133 300 l 1
 215 251 383 210 515 210 c 0
 656 210 725 262 725 385 c 0
 725 464 670 512 573 544 c 2
 349 617 l 2
 187 670 83 785 83 975 c 0
 83 1227 280 1358 548 1358 c 0
 708 1358 842 1324 963 1255 c 1
 882 1048 l 1
 790 1088 678 1128 559 1128 c 0
 426 1128 352 1087 352 980 c 0
 352 915 389 873 450 853 c 2
 658 783 l 1
 893 705 998 598 998 381 c 0
 998 119 794 -17 505 -17 c 0
EndSplineSet
EndChar

StartChar: afii10056
Encoding: 1031 1031 194
Width: 516
VWidth: 0
Flags: HW
LayerCount: 2
Fore
SplineSet
532 1445 m 1
 339 1445 l 1
 339 1690 l 1
 532 1690 l 1
 532 1445 l 1
157 1445 m 1
 -37 1445 l 1
 -37 1690 l 1
 157 1690 l 1
 157 1445 l 1
EndSplineSet
EndChar

StartChar: afii10057
Encoding: 1032 1032 195
Width: 556
VWidth: 0
Flags: HW
LayerCount: 2
Fore
SplineSet
-26 -285 m 1
 -38 -75 l 1
 1 -82 42 -84 65 -84 c 0
 197 -84 224 -21 224 126 c 2
 224 1342 l 1
 512 1342 l 1
 512 144 l 2
 512 -153 383 -293 67 -293 c 0
 37 -293 5 -292 -26 -285 c 1
EndSplineSet
EndChar

StartChar: afii10058
Encoding: 1033 1033 196
Width: 1654
VWidth: 0
Flags: HW
LayerCount: 2
Fore
SplineSet
48 -17 m 1
 48 174 l 1
 125 176 l 2
 264 179 282 227 282 364 c 2
 280 1326 l 1
 1006 1326 l 1
 1006 811 l 1
 1153 811 l 2
 1441 811 1688 698 1688 405 c 0
 1688 120 1457 5 1158 5 c 2
 800 5 l 1
 772 1117 l 1
 517 1117 l 1
 528 402 l 1
 528 113 443 -17 107 -17 c 2
 48 -17 l 1
1024 611 m 1
 1024 216 l 1
 1172 216 l 2
 1353 216 1466 280 1466 415 c 0
 1466 548 1352 611 1172 611 c 2
 1024 611 l 1
EndSplineSet
EndChar

StartChar: afii10062
Encoding: 1038 1038 198
Width: 1141
VWidth: 0
Flags: HW
LayerCount: 2
Fore
SplineSet
462 1702 m 1
 462 1693 l 2
 462 1632 488 1608 562 1608 c 0
 636 1608 663 1632 663 1693 c 2
 663 1702 l 1
 832 1702 l 1
 832 1693 l 2
 832 1527 715 1450 562 1450 c 0
 410 1450 294 1528 294 1693 c 2
 294 1702 l 1
 462 1702 l 1
EndSplineSet
EndChar

StartChar: afii10065
Encoding: 1072 1072 199
Width: 1002
VWidth: 0
Flags: HW
LayerCount: 2
Fore
SplineSet
469 166 m 0
 577 166 650 228 680 291 c 1
 680 474 l 1
 660 472 602 466 599 465 c 1
 598 465 l 1
 426 450 342 404 342 287 c 0
 342 208 385 166 469 166 c 0
708 119 m 1
 642 38 538 -18 405 -18 c 0
 229 -18 94 83 94 290 c 0
 94 514 245 600 498 626 c 0
 558 633 616 638 681 646 c 1
 681 689 l 2
 681 807 632 852 530 852 c 0
 443 852 331 829 240 792 c 2
 230 788 l 1
 227 797 l 2
 225 802 172 949 170 953 c 2
 166 962 l 1
 176 966 l 1
 287 1013 401 1041 548 1041 c 0
 813 1041 933 927 933 660 c 2
 933 0 l 1
 743 0 l 1
 741 8 l 2
 740 12 720 80 708 119 c 1
EndSplineSet
EndChar

StartChar: afii10066
Encoding: 1073 1073 200
Width: 953
VWidth: 0
Flags: HW
LayerCount: 2
Fore
SplineSet
815 821 m 1
 335 821 l 1
 335 660 l 1
 554 660 l 2
 746 660 914 550 914 337 c 0
 914 138 773 0 565 0 c 2
 89 0 l 1
 89 1016 l 1
 815 1016 l 1
 815 821 l 1
336 188 m 1
 550 188 l 2
 636 188 688 266 688 341 c 0
 688 411 639 478 546 478 c 2
 336 478 l 1
 336 188 l 1
EndSplineSet
EndChar

StartChar: afii10067
Encoding: 1074 1074 201
Width: 976
VWidth: 0
Flags: HW
LayerCount: 2
Fore
SplineSet
89 0 m 1
 89 1016 l 1
 559 1016 l 2
 769 1016 915 923 915 734 c 0
 915 649 874 572 789 532 c 1
 886 496 941 394 942 299 c 1
 942 98 790 0 577 0 c 2
 89 0 l 1
336 433 m 1
 336 187 l 1
 585 187 l 2
 677 187 722 246 722 311 c 1
 721 372 676 433 585 433 c 2
 336 433 l 1
336 814 m 1
 336 604 l 1
 577 604 l 2
 656 604 694 659 694 711 c 0
 694 766 658 814 577 814 c 2
 336 814 l 1
EndSplineSet
EndChar

StartChar: afii10068
Encoding: 1075 1075 202
Width: 649
VWidth: 0
Flags: HW
LayerCount: 2
Fore
SplineSet
625 819 m 1
 625 1016 l 1
 89 1016 l 1
 89 0 l 1
 336 0 l 1
 336 819 l 1
 625 819 l 1
EndSplineSet
EndChar

StartChar: afii10069
Encoding: 1076 1076 203
Width: 1064
VWidth: 0
Flags: HW
LayerCount: 2
Fore
SplineSet
29 -302 m 1
 29 194 l 1
 106 194 l 1
 165 299 224 521 226 741 c 1
 233 1016 l 1
 956 1016 l 1
 956 194 l 1
 1064 194 l 1
 1064 -302 l 1
 848 -302 l 1
 833 0 l 1
 257 0 l 1
 249 -302 l 1
 29 -302 l 1
711 810 m 1
 474 810 l 1
 473 771 471 676 468 647 c 1
 454 425 410 271 381 197 c 1
 711 197 l 1
 711 810 l 1
EndSplineSet
EndChar

StartChar: afii10070
Encoding: 1077 1077 204
Width: 1013
VWidth: 0
Flags: HW
LayerCount: 2
Fore
SplineSet
971 558 m 0
 971 526 970 490 970 457 c 2
 970 446 l 1
 327 446 l 1
 335 273 427 174 585 174 c 0
 701 174 798 208 885 256 c 1
 897 263 l 1
 932 77 l 1
 927 73 l 1
 836 16 732 -18 576 -18 c 0
 261 -18 72 183 72 512 c 0
 72 830 250 1040 539 1041 c 0
 818 1041 971 840 971 558 c 0
333 626 m 1
 731 626 l 1
 727 773 657 854 540 854 c 0
 437 854 348 789 333 626 c 1
EndSplineSet
EndChar

StartChar: afii10072
Encoding: 1078 1078 206
Width: 1385
VWidth: 0
Flags: HW
LayerCount: 2
Fore
SplineSet
592 603 m 1
 592 1016 l 1
 823 1016 l 1
 823 603 l 1
 1095 1016 l 1
 1387 1016 l 1
 1013 512 l 1
 1404 0 l 1
 1120 0 l 1
 823 415 l 1
 823 0 l 1
 592 0 l 1
 592 415 l 1
 294 0 l 1
 11 0 l 1
 401 512 l 1
 28 1016 l 1
 319 1016 l 1
 592 603 l 1
EndSplineSet
EndChar

StartChar: afii10073
Encoding: 1079 1079 207
Width: 874
VWidth: 0
Flags: HW
LayerCount: 2
Fore
SplineSet
64 90 m 1
 68 97 99 228 104 240 c 2
 109 250 l 1
 118 243 l 1
 183 200 304 169 431 169 c 0
 570 169 620 219 620 305 c 0
 620 368 563 419 458 419 c 2
 253 419 l 1
 253 596 l 1
 458 596 l 2
 551 596 593 647 593 706 c 0
 593 782 539 823 408 823 c 0
 276 823 174 797 120 759 c 2
 110 752 l 1
 106 765 l 1
 106 765 63 910 60 916 c 2
 55 924 l 1
 62 928 l 1
 144 987 291 1006 410 1006 c 0
 635 1006 813 918 813 736 c 0
 813 647 775 562 687 521 c 1
 776 481 837 386 839 286 c 1
 839 68 656 -18 424 -18 c 0
 273 -18 147 16 67 79 c 1
 62 84 l 1
 64 90 l 1
EndSplineSet
EndChar

StartChar: afii10074
Encoding: 1080 1080 208
Width: 1037
VWidth: 0
Flags: HW
LayerCount: 2
Fore
SplineSet
322 376 m 1
 322 1016 l 1
 89 1016 l 1
 89 0 l 1
 302 0 l 1
 739 558 l 1
 739 0 l 1
 969 0 l 1
 969 1016 l 1
 739 1016 l 1
 739 906 l 1
 322 376 l 1
EndSplineSet
EndChar

StartChar: afii10076
Encoding: 1082 1082 210
Width: 987
VWidth: 0
Flags: HW
LayerCount: 2
Fore
SplineSet
336 634 m 1
 385 686 542 855 580 896 c 0
 654 977 715 1025 821 1025 c 0
 879 1025 926 1012 932 1011 c 2
 941 1010 l 1
 941 807 l 1
 929 809 l 2
 923 810 860 823 840 823 c 0
 792 823 760 770 699 705 c 0
 665 668 538 536 505 502 c 1
 1034 0 l 1
 713 0 l 1
 336 373 l 1
 336 0 l 1
 89 0 l 1
 89 1016 l 1
 336 1016 l 1
 336 634 l 1
EndSplineSet
EndChar

StartChar: afii10077
Encoding: 1083 1083 211
Width: 1075
VWidth: 0
Flags: HW
LayerCount: 2
Fore
SplineSet
20 -24 m 0
 11 -25 -6 -25 -15 -25 c 2
 -25 -25 l 1
 -28 177 l 1
 10 181 l 1
 141 193 151 219 151 387 c 2
 151 1016 l 1
 1004 1016 l 1
 1004 1 l 1
 758 1 l 1
 758 811 l 1
 395 811 l 1
 395 360 l 2
 395 94 267 -16 20 -24 c 0
EndSplineSet
EndChar

StartChar: afii10078
Encoding: 1084 1084 212
Width: 1139
VWidth: 0
Flags: HW
LayerCount: 2
Fore
SplineSet
850 1016 m 1
 1071 1016 l 1
 1071 0 l 1
 841 0 l 1
 841 628 l 1
 634 309 l 1
 527 309 l 1
 322 627 l 1
 322 0 l 1
 89 0 l 1
 89 1016 l 1
 311 1016 l 1
 580 600 l 1
 850 1016 l 1
EndSplineSet
EndChar

StartChar: afii10079
Encoding: 1085 1085 213
Width: 1047
VWidth: 0
Flags: HW
LayerCount: 2
Fore
SplineSet
732 641 m 1
 732 1016 l 1
 978 1016 l 1
 978 0 l 1
 732 0 l 1
 732 449 l 1
 336 449 l 1
 336 0 l 1
 89 0 l 1
 89 1016 l 1
 336 1016 l 1
 336 641 l 1
 732 641 l 1
EndSplineSet
EndChar

StartChar: afii10080
Encoding: 1086 1086 214
Width: 1071
VWidth: 0
Flags: HW
LayerCount: 2
Fore
SplineSet
1027 512 m 0
 1027 195 853 -18 545 -18 c 0
 250 -18 72 200 72 512 c 0
 72 833 246 1041 554 1041 c 0
 851 1041 1027 825 1027 512 c 0
550 178 m 0
 700 178 774 296 774 512 c 0
 774 730 700 844 549 844 c 0
 400 844 324 729 324 511 c 0
 324 296 399 178 550 178 c 0
EndSplineSet
EndChar

StartChar: afii10081
Encoding: 1087 1087 215
Width: 1056
VWidth: 0
Flags: HW
LayerCount: 2
Fore
SplineSet
732 0 m 1
 732 821 l 1
 343 821 l 1
 343 0 l 1
 97 0 l 1
 97 1016 l 1
 979 1016 l 1
 979 0 l 1
 732 0 l 1
EndSplineSet
EndChar

StartChar: afii10082
Encoding: 1088 1088 216
Width: 1101
VWidth: 0
Flags: HW
LayerCount: 2
Fore
SplineSet
130 1017 m 1
 349 1017 l 1
 371 906 l 1
 430 976 548 1041 676 1041 c 0
 924 1041 1070 806 1070 513 c 0
 1070 207 915 -18 655 -18 c 0
 540 -18 446 28 379 99 c 1
 382 54 384 13 384 -15 c 2
 384 -395 l 1
 130 -408 l 1
 130 1017 l 1
607 179 m 0
 733 179 817 291 817 515 c 0
 817 746 730 844 603 844 c 0
 467 844 384 755 382 530 c 1
 382 277 463 179 607 179 c 0
EndSplineSet
EndChar

StartChar: afii10083
Encoding: 1089 1089 217
Width: 881
VWidth: 0
Flags: HW
LayerCount: 2
Fore
SplineSet
847 963 m 1
 854 959 l 1
 794 781 l 1
 783 786 l 1
 719 820 642 844 570 840 c 0
 426 833 324 735 324 513 c 0
 324 292 423 190 568 183 c 0
 658 178 742 217 804 258 c 1
 818 266 l 1
 844 64 l 1
 838 61 l 1
 755 6 673 -18 550 -18 c 0
 255 -18 72 170 72 516 c 0
 72 856 276 1041 553 1041 c 0
 671 1041 768 1013 847 963 c 1
EndSplineSet
EndChar

StartChar: afii10084
Encoding: 1090 1090 218
Width: 784
VWidth: 0
Flags: HW
LayerCount: 2
Fore
SplineSet
797 1016 m 1
 797 837 l 1
 523 837 l 1
 523 0 l 1
 284 0 l 1
 284 837 l 1
 3 837 l 1
 3 1016 l 1
 797 1016 l 1
EndSplineSet
EndChar

StartChar: afii10085
Encoding: 1091 1091 219
Width: 971
VWidth: 0
Flags: HW
LayerCount: 2
Fore
SplineSet
378 46 m 1
 -12 1016 l 1
 248 1016 l 1
 502 350 l 1
 726 1016 l 1
 991 1016 l 1
 600 -33 l 1
 500 -296 417 -365 178 -365 c 2
 63 -365 l 1
 36 -172 l 1
 114 -172 l 2
 286 -172 314 -183 378 46 c 1
EndSplineSet
EndChar

StartChar: afii10086
Encoding: 1092 1092 220
Width: 1303
VWidth: 0
Flags: HW
LayerCount: 2
Fore
SplineSet
785 -165 m 1
 540 -165 l 1
 540 17 l 1
 516 14 457 13 449 13 c 0
 207 13 70 274 70 511 c 0
 70 751 222 1007 465 1007 c 0
 474 1007 516 1006 540 1003 c 1
 540 1156 l 1
 785 1156 l 1
 785 1003 l 1
 805 1005 852 1007 860 1007 c 0
 1103 1007 1255 750 1255 510 c 0
 1255 272 1116 13 875 13 c 0
 866 13 812 14 785 17 c 1
 785 -165 l 1
453 196 m 0
 462 196 517 196 540 199 c 1
 540 820 l 1
 524 822 474 823 467 823 c 0
 364 823 297 659 297 505 c 0
 297 351 350 196 453 196 c 0
870 196 m 0
 974 196 1027 353 1027 506 c 0
 1027 660 960 824 858 824 c 0
 850 824 805 825 785 821 c 1
 785 200 l 1
 804 197 863 196 870 196 c 0
EndSplineSet
EndChar

StartChar: afii10087
Encoding: 1093 1093 221
Width: 1015
VWidth: 0
Flags: HW
LayerCount: 2
Fore
SplineSet
28 0 m 1
 381 520 l 1
 45 1017 l 1
 333 1017 l 1
 540 688 l 1
 756 1017 l 1
 1040 1017 l 1
 701 521 l 1
 1051 0 l 1
 760 0 l 1
 540 355 l 1
 315 0 l 1
 28 0 l 1
EndSplineSet
EndChar

StartChar: afii10088
Encoding: 1094 1094 222
Width: 1059
VWidth: 0
Flags: HW
LayerCount: 2
Fore
SplineSet
1052 -302 m 1
 1052 114 l 1
 943 114 l 1
 943 1016 l 1
 697 1016 l 1
 697 193 l 1
 339 193 l 1
 339 1016 l 1
 92 1016 l 1
 92 0 l 1
 826 0 l 1
 845 -302 l 1
 1052 -302 l 1
EndSplineSet
EndChar

StartChar: afii10089
Encoding: 1095 1095 223
Width: 1028
VWidth: 0
Flags: HW
LayerCount: 2
Fore
SplineSet
959 0 m 1
 712 0 l 1
 712 429 l 1
 660 378 575 342 451 342 c 1
 173 345 52 508 52 758 c 2
 52 1016 l 1
 298 1016 l 1
 298 802 l 2
 298 666 319 541 493 541 c 0
 639 541 706 626 712 678 c 1
 712 1016 l 1
 959 1016 l 1
 959 0 l 1
EndSplineSet
EndChar

StartChar: afii10090
Encoding: 1096 1096 224
Width: 1301
VWidth: 0
Flags: HW
LayerCount: 2
Fore
SplineSet
546 195 m 1
 546 1016 l 1
 777 1016 l 1
 777 195 l 1
 1002 195 l 1
 1002 1016 l 1
 1233 1016 l 1
 1233 0 l 1
 89 0 l 1
 89 1016 l 1
 322 1016 l 1
 322 195 l 1
 546 195 l 1
EndSplineSet
EndChar

StartChar: afii10091
Encoding: 1097 1097 225
Width: 1356
VWidth: 0
Flags: HW
LayerCount: 2
Fore
SplineSet
1131 -295 m 1
 1342 -295 l 1
 1342 113 l 1
 1233 113 l 1
 1233 1016 l 1
 1003 1016 l 1
 1003 193 l 1
 777 193 l 1
 777 1016 l 1
 547 1016 l 1
 547 193 l 1
 322 193 l 1
 322 1016 l 1
 89 1016 l 1
 89 0 l 1
 1117 0 l 1
 1131 -295 l 1
EndSplineSet
EndChar

StartChar: afii10092
Encoding: 1098 1098 226
Width: 1042
VWidth: 0
Flags: HW
LayerCount: 2
Fore
SplineSet
-2 1016 m 1
 434 1016 l 1
 434 647 l 1
 656 647 l 2
 849 647 1014 539 1014 329 c 0
 1014 133 878 0 669 0 c 2
 190 0 l 1
 190 823 l 1
 -2 823 l 1
 -2 1016 l 1
435 188 m 1
 655 188 l 2
 741 188 789 259 789 333 c 0
 789 399 743 467 649 467 c 2
 435 467 l 1
 435 188 l 1
EndSplineSet
EndChar

StartChar: afii10094
Encoding: 1100 1100 227
Width: 927
VWidth: 0
Flags: HW
LayerCount: 2
Fore
SplineSet
335 1017 m 1
 335 652 l 1
 542 652 l 2
 734 652 899 543 899 332 c 0
 899 136 762 0 554 0 c 2
 89 0 l 1
 89 1017 l 1
 335 1017 l 1
336 470 m 1
 336 188 l 1
 541 188 l 2
 626 188 673 261 673 336 c 0
 673 405 629 470 536 470 c 2
 336 470 l 1
EndSplineSet
EndChar

StartChar: afii10095
Encoding: 1101 1101 228
Width: 868
VWidth: 0
Flags: HW
LayerCount: 2
Fore
SplineSet
94 249 m 1
 105 241 l 1
 165 201 240 168 325 168 c 0
 462 168 557 244 585 420 c 1
 153 420 l 1
 153 602 l 1
 585 602 l 1
 560 772 465 844 329 844 c 0
 244 844 151 804 109 774 c 1
 98 767 l 1
 50 942 l 1
 56 946 l 1
 132 1005 226 1034 351 1034 c 0
 606 1034 831 859 831 523 c 0
 831 178 629 -19 338 -19 c 0
 216 -19 127 12 48 67 c 1
 42 71 l 1
 94 249 l 1
EndSplineSet
EndChar

StartChar: afii10096
Encoding: 1102 1102 229
Width: 1360
VWidth: 0
Flags: HW
LayerCount: 2
Fore
SplineSet
885 -18 m 0
 621 -18 478 175 445 410 c 1
 336 410 l 1
 336 0 l 1
 89 0 l 1
 89 1016 l 1
 336 1016 l 1
 336 610 l 1
 445 610 l 1
 479 850 624 1034 885 1034 c 0
 1178 1034 1325 802 1325 511 c 0
 1325 227 1171 -18 885 -18 c 0
885 168 m 0
 1029 168 1084 326 1084 509 c 0
 1084 703 1034 847 885 847 c 0
 746 847 677 693 677 508 c 0
 677 325 743 168 885 168 c 0
EndSplineSet
EndChar

StartChar: afii10097
Encoding: 1103 1103 230
Width: 992
VWidth: 0
Flags: HW
LayerCount: 2
Fore
SplineSet
460 813 m 2
 368 813 327 764 327 705 c 2
 327 698 l 1
 331 637 367 588 460 588 c 2
 680 588 l 1
 680 813 l 1
 460 813 l 2
438 1016 m 2
 926 1016 l 1
 926 0 l 1
 680 0 l 1
 680 392 l 1
 524 392 l 1
 338 0 l 1
 63 0 l 1
 284 430 l 1
 170 475 83 570 83 705 c 0
 83 898 231 1016 438 1016 c 2
EndSplineSet
EndChar

StartChar: afii10099
Encoding: 1106 1106 231
Width: 974
VWidth: 0
Flags: HW
LayerCount: 2
Fore
SplineSet
539 -252 m 1
 527 -106 l 1
 574 -106 l 2
 721 -106 734 -86 734 104 c 2
 734 340 l 2
 734 562 706 664 550 664 c 0
 407 664 290 542 266 453 c 1
 266 0 l 1
 96 0 l 1
 96 995 l 1
 13 995 l 1
 13 1119 l 1
 96 1119 l 1
 96 1382 l 1
 266 1382 l 1
 266 1119 l 1
 628 1119 l 1
 628 994 l 1
 266 994 l 1
 266 682 l 1
 340 770 439 824 564 824 c 0
 798 824 902 676 902 414 c 2
 902 155 l 2
 902 -120 879 -252 609 -252 c 2
 539 -252 l 1
EndSplineSet
EndChar

StartChar: afii10101
Encoding: 1108 1108 233
Width: 868
VWidth: 0
Flags: HW
LayerCount: 2
Fore
SplineSet
825 946 m 1
 830 942 l 1
 783 767 l 1
 772 774 l 1
 711 816 631 845 551 845 c 0
 423 845 321 773 295 609 c 1
 728 609 l 1
 728 428 l 1
 296 428 l 1
 324 256 429 168 560 168 c 0
 631 168 704 192 774 241 c 1
 786 249 l 1
 839 71 l 1
 833 67 l 1
 754 12 664 -19 543 -19 c 0
 252 -19 49 178 49 523 c 0
 49 859 275 1039 529 1039 c 0
 654 1039 749 1004 825 946 c 1
EndSplineSet
EndChar

StartChar: afii10102
Encoding: 1109 1109 234
Width: 860
VWidth: 0
Flags: HW
LayerCount: 2
Fore
SplineSet
426 -17 m 0
 280 -17 163 9 78 57 c 1
 73 61 l 1
 99 257 l 1
 111 250 l 1
 181 212 318 167 418 167 c 0
 513 167 566 204 568 275 c 1
 568 340 510 361 389 421 c 1
 388 421 l 1
 378 427 348 442 336 448 c 1
 336 447 l 1
 167 526 77 586 76 748 c 1
 76 940 223 1041 449 1041 c 0
 572 1041 681 1017 777 969 c 2
 785 965 l 1
 720 785 l 1
 711 790 l 1
 637 825 541 854 452 854 c 0
 365 854 317 827 317 768 c 0
 317 709 364 694 491 637 c 0
 508 630 528 620 546 612 c 0
 717 540 811 466 811 306 c 0
 811 99 667 -17 426 -17 c 0
EndSplineSet
EndChar

StartChar: afii10103
Encoding: 1110 1110 235
Width: 447
VWidth: 0
Flags: HW
LayerCount: 2
Fore
SplineSet
130 1139 m 1
 130 1357 l 1
 384 1357 l 1
 384 1139 l 1
 130 1139 l 1
384 0 m 1
 130 0 l 1
 130 1017 l 1
 384 1017 l 1
 384 0 l 1
EndSplineSet
EndChar

StartChar: afii10105
Encoding: 1112 1112 237
Width: 461
VWidth: 0
Flags: HW
LayerCount: 2
Fore
SplineSet
404 1139 m 1
 151 1139 l 1
 151 1357 l 1
 404 1357 l 1
 404 1139 l 1
24 -379 m 2
 -36 -379 l 1
 -65 -187 l 1
 -3 -187 l 2
 138 -187 151 -149 151 -4 c 2
 151 1017 l 1
 404 1017 l 1
 404 40 l 2
 404 -240 342 -379 24 -379 c 2
EndSplineSet
EndChar

StartChar: afii10107
Encoding: 1114 1114 238
Width: 1486
VWidth: 0
Flags: HW
LayerCount: 2
Fore
SplineSet
696 642 m 1
 696 1016 l 1
 940 1016 l 1
 940 643 l 1
 1111 643 l 2
 1318 643 1457 544 1457 328 c 0
 1457 138 1315 0 1110 0 c 2
 696 0 l 1
 696 437 l 1
 336 437 l 1
 336 0 l 1
 89 0 l 1
 89 1016 l 1
 336 1016 l 1
 336 642 l 1
 696 642 l 1
940 463 m 1
 940 191 l 1
 1100 191 l 2
 1195 191 1246 255 1246 333 c 0
 1246 406 1193 463 1099 463 c 2
 940 463 l 1
EndSplineSet
EndChar

StartChar: afii10108
Encoding: 1115 1115 239
Width: 974
VWidth: 0
Flags: HW
LayerCount: 2
Fore
SplineSet
266 0 m 1
 266 453 l 1
 290 542 407 664 550 664 c 0
 706 664 734 563 734 340 c 2
 734 0 l 1
 902 0 l 1
 902 412 l 2
 902 675 798 824 564 824 c 0
 439 824 340 770 266 682 c 1
 266 995 l 1
 628 995 l 1
 628 1120 l 1
 266 1120 l 1
 266 1382 l 1
 96 1382 l 1
 96 1120 l 1
 13 1120 l 1
 13 996 l 1
 96 996 l 1
 96 0 l 1
 266 0 l 1
EndSplineSet
EndChar

StartChar: afii10193
Encoding: 1119 1119 242
Width: 1017
VWidth: 0
Flags: HW
LayerCount: 2
Fore
SplineSet
336 1016 m 1
 336 193 l 1
 696 193 l 1
 696 1016 l 1
 943 1016 l 1
 943 0 l 1
 642 0 l 1
 630 -304 l 1
 424 -304 l 1
 415 0 l 1
 89 0 l 1
 89 1016 l 1
 336 1016 l 1
EndSplineSet
EndChar

StartChar: afii57929
Encoding: 700 700 243
Width: 334
VWidth: 0
Flags: HW
LayerCount: 2
Fore
SplineSet
91 877 m 1
 85 1357 l 1
 287 1357 l 1
 236 877 l 1
 91 877 l 1
EndSplineSet
EndChar

StartChar: afii61352
Encoding: 8470 8470 244
Width: 2438
VWidth: 0
Flags: HW
LayerCount: 2
Fore
SplineSet
1912 -18 m 0
 2220 -18 2394 195 2394 512 c 0
 2394 825 2218 1041 1921 1041 c 0
 1613 1041 1439 833 1439 512 c 0
 1439 200 1617 -18 1912 -18 c 0
1916 844 m 0
 2067 844 2141 730 2141 512 c 0
 2141 296 2067 178 1917 178 c 0
 1766 178 1691 296 1691 511 c 0
 1691 729 1767 844 1916 844 c 0
1015 384 m 1
 1014 461 996 793 996 801 c 2
 996 1342 l 1
 1282 1342 l 1
 1282 0 l 1
 975 0 l 1
 387 945 l 1
 387 945 415 430 415 409 c 2
 415 0 l 1
 130 0 l 1
 130 1342 l 1
 426 1342 l 1
 1015 384 l 1
EndSplineSet
EndChar

StartChar: alpha
Encoding: 945 945 246
Width: 407
VWidth: 0
Flags: HW
LayerCount: 2
Fore
SplineSet
215 483 m 0
 131 483 87 547 87 610 c 0
 87 673 131 737 215 737 c 0
 300 737 342 673 342 610 c 0
 342 547 300 483 215 483 c 0
EndSplineSet
EndChar

StartChar: alphatonos
Encoding: 940 940 247
Width: 407
VWidth: 0
Flags: HW
LayerCount: 2
Fore
SplineSet
215 483 m 0
 131 483 87 547 87 610 c 0
 87 673 131 737 215 737 c 0
 300 737 342 673 342 610 c 0
 342 547 300 483 215 483 c 0
EndSplineSet
EndChar

StartChar: ampersand
Encoding: 38 38 249
Width: 1261
VWidth: 0
Flags: HW
LayerCount: 2
Fore
SplineSet
413 1061 m 0
 413 984 454 924 511 863 c 1
 598 911 684 968 684 1067 c 0
 684 1151 628 1189 551 1189 c 0
 468 1189 413 1150 413 1061 c 0
270 399 m 0
 270 247 380 178 522 178 c 0
 617 178 712 210 784 266 c 1
 735 320 499 578 452 630 c 1
 352 574 270 518 270 399 c 0
198 1052 m 0
 198 1263 363 1359 544 1359 c 0
 712 1359 903 1275 903 1068 c 0
 903 898 765 795 627 725 c 1
 919 403 l 1
 964 456 1013 533 1047 597 c 1
 1051 606 l 1
 1220 495 l 1
 1216 488 l 1
 1176 409 1119 322 1060 256 c 1
 1249 57 l 1
 1234 53 l 2
 1221 49 1058 10 1047 6 c 2
 1041 4 l 1
 917 134 l 1
 802 49 663 -1 517 -1 c 0
 274 -1 45 111 45 389 c 0
 45 585 186 688 339 772 c 1
 271 851 198 936 198 1052 c 0
EndSplineSet
EndChar

StartChar: approxequal
Encoding: 8776 8776 251
Width: 1151
VWidth: 0
Flags: HW
LayerCount: 2
Fore
SplineSet
622 723 m 1
 699 685 752 667 803 667 c 0
 871 667 926 700 998 789 c 1
 1005 799 l 1
 1089 678 l 1
 1087 673 l 1
 1044 573 928 478 788 478 c 0
 699 478 633 507 543 551 c 1
 485 581 438 602 375 602 c 0
 295 602 244 544 212 472 c 1
 204 457 l 1
 113 589 l 1
 114 594 l 1
 157 703 240 789 382 789 c 0
 462 789 546 759 622 723 c 1
212 104 m 1
 204 89 l 1
 113 221 l 1
 114 226 l 1
 158 335 241 421 383 421 c 0
 464 421 548 390 620 357 c 1
 695 321 753 299 803 299 c 0
 871 299 925 333 999 421 c 1
 1006 432 l 1
 1089 310 l 1
 1087 305 l 1
 1044 206 929 110 789 110 c 0
 700 110 634 139 543 183 c 1
 485 213 439 234 376 234 c 0
 295 234 245 176 212 104 c 1
EndSplineSet
EndChar

StartChar: asciicircum
Encoding: 94 94 254
Width: 1011
VWidth: 0
Flags: HW
LayerCount: 2
Fore
SplineSet
22 491 m 1
 441 1347 l 1
 566 1347 l 1
 1011 491 l 1
 802 491 l 1
 505 1075 l 1
 231 491 l 1
 22 491 l 1
EndSplineSet
EndChar

StartChar: asciitilde
Encoding: 126 126 255
Width: 1139
VWidth: 0
Flags: HW
LayerCount: 2
Fore
SplineSet
112 571 m 1
 159 667 237 750 375 750 c 0
 453 750 534 724 610 691 c 0
 689 656 747 635 797 635 c 0
 864 635 925 670 999 753 c 2
 1008 763 l 1
 1080 625 l 1
 1077 620 l 1
 1029 530 915 443 783 443 c 0
 696 443 632 470 547 508 c 1
 482 539 431 561 367 561 c 0
 289 561 232 500 196 433 c 2
 188 418 l 1
 109 568 l 1
 112 571 l 1
EndSplineSet
EndChar

StartChar: asterisk
Encoding: 42 42 256
Width: 965
VWidth: 0
Flags: HW
LayerCount: 2
Fore
SplineSet
645 498 m 1
 490 783 l 1
 342 500 l 1
 141 610 l 1
 354 878 l 1
 48 946 l 1
 112 1159 l 1
 411 1035 l 1
 380 1378 l 1
 601 1378 l 1
 572 1035 l 1
 874 1159 l 1
 935 946 l 1
 628 878 l 1
 666 830 820 642 835 621 c 1
 841 610 l 1
 832 605 l 2
 820 598 663 510 653 504 c 1
 645 498 l 1
EndSplineSet
EndChar

StartChar: at
Encoding: 64 64 257
Width: 1494
VWidth: 0
Flags: HW
LayerCount: 2
Fore
SplineSet
1458 640 m 0
 1458 349 1265 140 1058 140 c 0
 969 140 901 188 887 309 c 1
 841 221 760 154 667 154 c 0
 491 154 391 295 391 472 c 0
 391 729 574 947 823 947 c 0
 928 947 1026 919 1106 888 c 1
 1113 885 l 1
 1112 877 l 1
 1084 724 1044 567 1026 433 c 0
 1010 312 1024 293 1058 288 c 0
 1064 287 1069 287 1076 287 c 0
 1193 287 1299 471 1299 643 c 0
 1299 936 1087 1125 793 1125 c 0
 385 1125 220 765 220 529 c 0
 220 160 480 -37 791 -37 c 0
 942 -37 1095 1 1228 99 c 1
 1238 106 l 1
 1296 -8 l 1
 1289 -13 l 1
 1165 -115 1006 -184 793 -184 c 0
 359 -184 54 101 54 540 c 0
 54 960 371 1274 794 1274 c 0
 1168 1274 1458 1018 1458 640 c 0
669 306 m 0
 789 306 858 471 896 646 c 0
 909 705 916 756 925 811 c 1
 897 816 867 819 836 819 c 0
 689 819 573 635 573 468 c 0
 573 379 602 306 669 306 c 0
EndSplineSet
EndChar

StartChar: b
Encoding: 98 98 259
Width: 1147
VWidth: 0
Flags: HW
LayerCount: 2
Fore
SplineSet
130 1 m 1
 351 1 l 1
 371 127 l 1
 425 50 527 -18 660 -18 c 0
 913 -18 1071 202 1071 519 c 0
 1071 819 923 1041 664 1041 c 0
 520 1041 431 969 380 908 c 1
 382 974 386 1028 386 1079 c 2
 386 1393 l 1
 130 1376 l 1
 130 1 l 1
606 845 m 0
 731 845 815 744 815 516 c 0
 815 290 728 179 603 179 c 0
 461 179 381 277 381 527 c 1
 383 757 471 845 606 845 c 0
EndSplineSet
EndChar

StartChar: backslash
Encoding: 92 92 260
Width: 788
VWidth: 0
Flags: HW
LayerCount: 2
Fore
SplineSet
569 -54 m 1
 18 1339 l 1
 244 1339 l 1
 795 -54 l 1
 569 -54 l 1
EndSplineSet
EndChar

StartChar: bar
Encoding: 124 124 261
Width: 667
VWidth: 0
Flags: HW
LayerCount: 2
Fore
SplineSet
241 -338 m 1
 241 1406 l 1
 442 1406 l 1
 442 -338 l 1
 241 -338 l 1
EndSplineSet
EndChar

StartChar: beta
Encoding: 946 946 262
Width: 407
VWidth: 0
Flags: HW
LayerCount: 2
Fore
SplineSet
215 483 m 0
 131 483 87 547 87 610 c 0
 87 673 131 737 215 737 c 0
 300 737 342 673 342 610 c 0
 342 547 300 483 215 483 c 0
EndSplineSet
EndChar

StartChar: braceleft
Encoding: 123 123 263
Width: 691
VWidth: 0
Flags: HW
LayerCount: 2
Fore
SplineSet
240 277 m 2
 240 413 204 458 49 458 c 2
 39 458 l 1
 39 671 l 1
 49 671 l 1
 211 672 240 711 240 849 c 2
 240 1112 l 2
 240 1325 377 1383 630 1383 c 2
 640 1383 l 1
 640 1183 l 1
 630 1183 l 1
 504 1181 485 1150 485 1037 c 2
 485 796 l 1
 483 676 432 613 318 564 c 1
 424 533 485 461 485 340 c 2
 485 97 l 2
 485 -16 503 -45 630 -47 c 1
 640 -47 l 1
 640 -245 l 1
 630 -245 l 2
 373 -245 240 -186 240 30 c 2
 240 277 l 2
EndSplineSet
EndChar

StartChar: braceright
Encoding: 125 125 264
Width: 691
VWidth: 0
Flags: HW
LayerCount: 2
Fore
SplineSet
80 -47 m 1
 206 -45 224 -17 224 97 c 2
 224 340 l 2
 224 462 282 525 392 564 c 1
 281 605 226 675 224 796 c 1
 224 1037 l 2
 224 1151 207 1181 80 1183 c 1
 70 1183 l 1
 70 1383 l 1
 80 1383 l 2
 336 1383 469 1326 469 1104 c 2
 469 848 l 2
 469 712 500 672 661 671 c 1
 671 671 l 1
 671 458 l 1
 661 458 l 2
 506 458 469 416 469 277 c 2
 469 22 l 2
 469 -189 339 -245 80 -245 c 2
 70 -245 l 1
 70 -47 l 1
 80 -47 l 1
EndSplineSet
EndChar

StartChar: bracketleft
Encoding: 91 91 265
Width: 702
VWidth: 0
Flags: HW
LayerCount: 2
Fore
SplineSet
419 1200 m 1
 419 -56 l 1
 606 -56 l 1
 606 -237 l 1
 174 -237 l 1
 174 1380 l 1
 606 1380 l 1
 606 1200 l 1
 419 1200 l 1
EndSplineSet
EndChar

StartChar: bracketright
Encoding: 93 93 266
Width: 703
VWidth: 0
Flags: HW
LayerCount: 2
Fore
SplineSet
96 1200 m 1
 96 1380 l 1
 529 1380 l 1
 529 -237 l 1
 96 -237 l 1
 96 -56 l 1
 283 -56 l 1
 283 1200 l 1
 96 1200 l 1
EndSplineSet
EndChar

StartChar: breve
Encoding: 728 728 267
Width: 622
VWidth: 0
Flags: HW
LayerCount: 2
Fore
SplineSet
216 1354 m 1
 216 1345 l 2
 216 1284 242 1260 316 1260 c 0
 390 1260 417 1284 417 1345 c 2
 417 1354 l 1
 586 1354 l 1
 586 1345 l 2
 586 1179 469 1102 316 1102 c 0
 164 1102 48 1180 48 1345 c 2
 48 1354 l 1
 216 1354 l 1
EndSplineSet
EndChar

StartChar: brokenbar
Encoding: 166 166 268
Width: 718
VWidth: 0
Flags: HW
LayerCount: 2
Fore
SplineSet
266 -337 m 1
 266 331 l 1
 467 331 l 1
 467 -337 l 1
 266 -337 l 1
266 739 m 1
 266 1406 l 1
 467 1406 l 1
 467 739 l 1
 266 739 l 1
EndSplineSet
EndChar

StartChar: bullet
Encoding: 8226 8226 269
Width: 871
VWidth: 0
Flags: HW
LayerCount: 2
Fore
SplineSet
443 324 m 0
 258 324 121 457 121 635 c 0
 121 813 264 950 448 950 c 0
 631 950 769 819 769 641 c 0
 769 462 628 324 443 324 c 0
EndSplineSet
EndChar

StartChar: c
Encoding: 99 99 270
Width: 900
VWidth: 0
Flags: HW
LayerCount: 2
Fore
SplineSet
554 -18 m 0
 259 -18 72 170 72 516 c 0
 72 856 280 1041 557 1041 c 0
 675 1041 772 1013 858 959 c 1
 798 781 l 1
 760 797 708 840 574 840 c 1
 430 833 328 735 328 513 c 0
 328 292 427 190 572 183 c 0
 662 178 744 207 815 247 c 1
 848 64 l 1
 812 45 745 -18 554 -18 c 0
EndSplineSet
EndChar

StartChar: caron
Encoding: 711 711 272
Width: 679
VWidth: 0
Flags: HW
LayerCount: 2
Fore
SplineSet
271 1076 m 1
 23 1413 l 1
 224 1413 l 1
 354 1242 l 1
 504 1413 l 1
 709 1413 l 1
 461 1076 l 1
 271 1076 l 1
EndSplineSet
EndChar

StartChar: cedilla
Encoding: 184 184 277
Width: 514
VWidth: 0
Flags: HW
LayerCount: 2
Fore
SplineSet
46 -297 m 1
 162 60 l 1
 309 60 l 1
 255 -297 l 1
 46 -297 l 1
EndSplineSet
EndChar

StartChar: cent
Encoding: 162 162 278
Width: 945
VWidth: 0
Flags: HW
LayerCount: 2
Fore
SplineSet
500 250 m 1
 500 885 l 1
 390 861 307 766 307 576 c 0
 307 384 382 280 500 250 c 1
500 1070 m 1
 500 1266 l 1
 605 1266 l 1
 605 1068 l 1
 698 1059 772 1031 833 985 c 1
 838 981 l 1
 793 807 l 1
 781 815 l 1
 743 842 676 870 605 880 c 1
 605 235 l 1
 675 243 739 272 784 304 c 1
 796 312 l 1
 848 136 l 1
 842 132 l 1
 774 84 700 55 605 47 c 1
 605 -183 l 1
 500 -183 l 1
 500 47 l 1
 244 71 67 258 67 574 c 1
 68 880 262 1051 500 1070 c 1
EndSplineSet
EndChar

StartChar: chi
Encoding: 967 967 279
Width: 1015
VWidth: 0
Flags: HW
LayerCount: 2
Fore
SplineSet
540 688 m 1
 756 1017 l 1
 1040 1017 l 1
 701 521 l 1
 1051 0 l 1
 760 0 l 1
 540 355 l 1
 315 0 l 1
 28 0 l 1
 381 520 l 1
 45 1017 l 1
 333 1017 l 1
 540 688 l 1
EndSplineSet
EndChar

StartChar: circumflex
Encoding: 710 710 280
Width: 680
VWidth: 0
Flags: HW
LayerCount: 2
Fore
SplineSet
31 1045 m 1
 266 1413 l 1
 462 1413 l 1
 698 1045 l 1
 512 1045 l 1
 354 1239 l 1
 212 1045 l 1
 31 1045 l 1
EndSplineSet
EndChar

StartChar: colon
Encoding: 58 58 281
Width: 400
VWidth: 0
Flags: HW
LayerCount: 2
Fore
SplineSet
83 -6 m 1
 83 260 l 1
 339 260 l 1
 339 -6 l 1
 83 -6 l 1
83 768 m 1
 83 1023 l 1
 339 1023 l 1
 339 768 l 1
 83 768 l 1
EndSplineSet
EndChar

StartChar: comma
Encoding: 44 44 282
Width: 443
VWidth: 0
Flags: HW
LayerCount: 2
Fore
SplineSet
137 245 m 1
 374 245 l 1
 369 190 l 1
 369 189 l 1
 333 63 285 -82 228 -227 c 1
 226 -233 l 1
 49 -233 l 1
 51 -221 l 1
 82 -70 113 95 136 238 c 1
 137 245 l 1
EndSplineSet
EndChar

StartChar: copyright
Encoding: 169 169 283
Width: 1533
VWidth: 0
Flags: HW
LayerCount: 2
Fore
SplineSet
1472 688 m 0
 1472 285 1150 0 771 0 c 0
 396 0 72 285 72 688 c 0
 72 1091 395 1377 770 1377 c 0
 1148 1377 1472 1090 1472 688 c 0
195 688 m 0
 195 367 439 108 771 108 c 0
 1107 108 1350 367 1350 687 c 0
 1350 1007 1106 1268 770 1268 c 0
 439 1268 195 1007 195 688 c 0
1034 1054 m 1
 1041 1051 l 1
 990 941 l 1
 981 946 l 1
 917 984 835 1003 769 1003 c 0
 599 1003 491 874 491 679 c 0
 491 487 600 361 772 361 c 0
 838 361 923 381 986 419 c 1
 996 424 l 1
 1042 314 l 1
 1035 310 l 1
 963 263 868 236 759 236 c 0
 519 236 342 422 342 679 c 0
 342 929 511 1129 758 1129 c 0
 867 1129 960 1104 1034 1054 c 1
EndSplineSet
EndChar

StartChar: currency
Encoding: 164 164 284
Width: 1017
VWidth: 0
Flags: HW
LayerCount: 2
Fore
SplineSet
999 308 m 1
 906 210 l 1
 739 366 l 1
 677 320 602 291 519 291 c 0
 434 291 359 317 296 365 c 1
 136 211 l 1
 38 306 l 1
 203 464 l 1
 164 525 139 597 139 675 c 0
 139 752 162 822 203 887 c 1
 37 1046 l 1
 136 1142 l 1
 298 987 l 1
 359 1032 437 1060 519 1060 c 0
 603 1060 675 1034 739 985 c 1
 906 1142 l 1
 1000 1045 l 1
 835 887 l 1
 874 826 899 753 899 675 c 0
 899 597 877 528 836 464 c 1
 999 308 l 1
519 434 m 0
 651 434 757 541 757 675 c 0
 757 809 650 917 519 917 c 0
 389 917 283 808 283 675 c 0
 283 541 389 434 519 434 c 0
EndSplineSet
EndChar

StartChar: d
Encoding: 100 100 285
Width: 1147
VWidth: 0
Flags: HW
LayerCount: 2
Fore
SplineSet
546 843 m 0
 421 843 332 742 332 512 c 0
 332 285 420 179 548 179 c 0
 687 179 770 267 772 497 c 1
 772 748 691 843 546 843 c 0
1017 0 m 1
 797 0 l 1
 773 117 l 1
 733 55 661 -17 492 -17 c 0
 231 -17 76 200 76 517 c 0
 76 826 230 1041 492 1041 c 0
 644 1041 725 978 769 920 c 1
 765 963 761 1017 761 1052 c 2
 761 1376 l 1
 1017 1393 l 1
 1017 0 l 1
EndSplineSet
EndChar

StartChar: dagger
Encoding: 8224 8224 286
Width: 856
VWidth: 0
Flags: HW
LayerCount: 2
Fore
SplineSet
335 1052 m 1
 335 1360 l 1
 526 1360 l 1
 526 1052 l 1
 822 1052 l 1
 822 872 l 1
 518 872 l 1
 518 102 l 1
 335 102 l 1
 335 872 l 1
 54 872 l 1
 54 1052 l 1
 335 1052 l 1
EndSplineSet
EndChar

StartChar: daggerdbl
Encoding: 8225 8225 287
Width: 870
VWidth: 0
Flags: HW
LayerCount: 2
Fore
SplineSet
352 498 m 1
 352 863 l 1
 109 863 l 1
 109 1037 l 1
 352 1037 l 1
 352 1354 l 1
 543 1354 l 1
 543 1037 l 1
 788 1037 l 1
 788 863 l 1
 543 863 l 1
 544 498 l 1
 785 498 l 1
 785 335 l 1
 544 335 l 1
 544 -23 l 1
 352 -23 l 1
 352 335 l 1
 107 335 l 1
 107 498 l 1
 352 498 l 1
EndSplineSet
EndChar

StartChar: degree
Encoding: 176 176 289
Width: 748
VWidth: 0
Flags: HW
LayerCount: 2
Fore
SplineSet
384 908 m 0
 454 908 519 961 519 1052 c 0
 519 1141 454 1191 385 1191 c 0
 314 1191 247 1141 247 1052 c 0
 247 961 314 908 384 908 c 0
384 774 m 0
 197 774 93 913 93 1057 c 0
 93 1204 200 1332 384 1332 c 0
 565 1332 673 1204 673 1057 c 0
 673 914 570 774 384 774 c 0
EndSplineSet
EndChar

StartChar: delta
Encoding: 948 948 290
Width: 407
VWidth: 0
Flags: HW
LayerCount: 2
Fore
SplineSet
215 483 m 0
 131 483 87 547 87 610 c 0
 87 673 131 737 215 737 c 0
 300 737 342 673 342 610 c 0
 342 547 300 483 215 483 c 0
EndSplineSet
EndChar

StartChar: dieresis
Encoding: 168 168 291
Width: 679
VWidth: 0
Flags: HW
LayerCount: 2
Fore
SplineSet
63 1119 m 1
 63 1364 l 1
 257 1364 l 1
 257 1119 l 1
 63 1119 l 1
439 1119 m 1
 439 1364 l 1
 632 1364 l 1
 632 1119 l 1
 439 1119 l 1
EndSplineSet
EndChar

StartChar: dieresistonos
Encoding: 901 901 292
Width: 407
VWidth: 0
Flags: HW
LayerCount: 2
Fore
SplineSet
215 483 m 0
 131 483 87 547 87 610 c 0
 87 673 131 737 215 737 c 0
 300 737 342 673 342 610 c 0
 342 547 300 483 215 483 c 0
EndSplineSet
EndChar

StartChar: divide
Encoding: 247 247 293
Width: 1282
VWidth: 0
Flags: HW
LayerCount: 2
Fore
SplineSet
519 18 m 1
 519 279 l 1
 779 279 l 1
 779 18 l 1
 519 18 l 1
154 444 m 1
 154 630 l 1
 1142 630 l 1
 1142 444 l 1
 154 444 l 1
519 797 m 1
 519 1047 l 1
 787 1047 l 1
 787 797 l 1
 519 797 l 1
EndSplineSet
EndChar

StartChar: dollar
Encoding: 36 36 294
Width: 1053
VWidth: 0
Flags: HW
LayerCount: 2
Fore
SplineSet
487 841 m 1
 487 1123 l 1
 400 1109 352 1066 352 980 c 0
 352 915 389 873 450 853 c 2
 487 841 l 1
606 220 m 1
 609 220 l 1
 687 241 725 293 725 385 c 0
 725 454 682 500 606 532 c 1
 606 220 l 1
606 -148 m 1
 487 -148 l 1
 487 -17 l 1
 319 -15 180 18 68 82 c 1
 133 300 l 1
 209 254 360 216 487 211 c 1
 487 572 l 1
 349 617 l 2
 187 670 83 785 83 975 c 0
 83 1207 251 1337 487 1356 c 1
 487 1480 l 1
 606 1480 l 1
 606 1356 l 1
 741 1349 857 1315 963 1255 c 1
 882 1048 l 1
 802 1083 707 1118 606 1126 c 1
 606 801 l 1
 658 783 l 1
 893 705 998 598 998 381 c 0
 998 151 840 18 606 -11 c 1
 606 -148 l 1
EndSplineSet
EndChar

StartChar: dotaccent
Encoding: 729 729 295
Width: 473
VWidth: 0
Flags: HW
LayerCount: 2
Fore
SplineSet
135 1129 m 1
 135 1342 l 1
 333 1342 l 1
 333 1129 l 1
 135 1129 l 1
EndSplineSet
EndChar

StartChar: dotlessi
Encoding: 305 305 296
Width: 480
VWidth: 0
Flags: HW
LayerCount: 2
Fore
SplineSet
109 0 m 1
 109 1016 l 1
 356 1016 l 1
 356 0 l 1
 109 0 l 1
EndSplineSet
EndChar

StartChar: e
Encoding: 101 101 297
Width: 1036
VWidth: 0
Flags: HW
LayerCount: 2
Fore
SplineSet
337 613 m 1
 356 774 437 854 540 854 c 0
 657 854 727 760 731 613 c 1
 337 613 l 1
576 -18 m 0
 732 -18 836 2 932 63 c 1
 897 243 l 1
 855 224 763 174 600 174 c 0
 427 174 344 273 331 448 c 1
 964 448 l 1
 964 448 971 543 971 558 c 0
 971 840 818 1041 539 1041 c 0
 250 1040 72 830 72 512 c 0
 72 183 261 -18 576 -18 c 0
EndSplineSet
EndChar

StartChar: eight
Encoding: 56 56 305
Width: 1093
VWidth: 0
Flags: HW
LayerCount: 2
Fore
SplineSet
549 1 m 0
 300 1 84 129 84 375 c 0
 84 540 172 647 301 711 c 1
 190 770 109 865 109 1017 c 0
 109 1249 310 1363 548 1363 c 0
 788 1363 985 1249 985 1017 c 0
 985 868 912 772 806 711 c 1
 927 646 1009 538 1009 374 c 0
 1009 127 796 1 549 1 c 0
549 173 m 0
 692 173 773 243 773 369 c 0
 773 500 678 579 549 614 c 1
 419 579 323 501 323 368 c 0
 323 243 407 173 549 173 c 0
549 781 m 1
 681 812 761 891 761 1016 c 0
 761 1118 672 1184 549 1184 c 0
 426 1184 334 1118 334 1016 c 0
 334 891 416 812 549 781 c 1
EndSplineSet
EndChar

StartChar: emdash
Encoding: 8212 8212 307
Width: 1894
VWidth: 0
Flags: HW
LayerCount: 2
Fore
SplineSet
19 419 m 1
 19 603 l 1
 1886 603 l 1
 1886 419 l 1
 19 419 l 1
EndSplineSet
EndChar

StartChar: endash
Encoding: 8211 8211 308
Width: 1113
VWidth: 0
Flags: HW
LayerCount: 2
Fore
SplineSet
72 419 m 1
 72 603 l 1
 1063 603 l 1
 1063 419 l 1
 72 419 l 1
EndSplineSet
EndChar

StartChar: eng
Encoding: 331 331 309
Width: 1041
VWidth: 0
Flags: HW
LayerCount: 2
Fore
SplineSet
646 -332 m 2
 963 -332 1023 -185 1024 101 c 1
 1024 640 l 2
 1024 891 911 1041 676 1041 c 0
 535 1041 435 979 355 902 c 1
 331 1016 l 1
 123 1016 l 1
 123 0 l 1
 379 0 l 1
 379 496 l 2
 379 582 382 656 395 713 c 1
 431 789 513 844 611 844 c 0
 737 844 767 761 768 612 c 1
 768 54 l 2
 768 -109 753 -141 617 -141 c 2
 557 -141 l 1
 583 -332 l 1
 646 -332 l 2
EndSplineSet
EndChar

StartChar: epsilon
Encoding: 949 949 311
Width: 407
VWidth: 0
Flags: HW
LayerCount: 2
Fore
SplineSet
215 483 m 0
 131 483 87 547 87 610 c 0
 87 673 131 737 215 737 c 0
 300 737 342 673 342 610 c 0
 342 547 300 483 215 483 c 0
EndSplineSet
EndChar

StartChar: epsilontonos
Encoding: 941 941 312
Width: 407
VWidth: 0
Flags: HW
LayerCount: 2
Fore
SplineSet
215 483 m 0
 131 483 87 547 87 610 c 0
 87 673 131 737 215 737 c 0
 300 737 342 673 342 610 c 0
 342 547 300 483 215 483 c 0
EndSplineSet
EndChar

StartChar: equal
Encoding: 61 61 313
Width: 1052
VWidth: 0
Flags: HW
LayerCount: 2
Fore
SplineSet
76 680 m 1
 76 881 l 1
 995 881 l 1
 995 680 l 1
 76 680 l 1
76 326 m 1
 76 518 l 1
 995 518 l 1
 995 326 l 1
 76 326 l 1
EndSplineSet
EndChar

StartChar: eta
Encoding: 951 951 314
Width: 407
VWidth: 0
Flags: HW
LayerCount: 2
Fore
SplineSet
215 483 m 0
 131 483 87 547 87 610 c 0
 87 673 131 737 215 737 c 0
 300 737 342 673 342 610 c 0
 342 547 300 483 215 483 c 0
EndSplineSet
EndChar

StartChar: etatonos
Encoding: 942 942 315
Width: 407
VWidth: 0
Flags: HW
LayerCount: 2
Fore
SplineSet
215 483 m 0
 131 483 87 547 87 610 c 0
 87 673 131 737 215 737 c 0
 300 737 342 673 342 610 c 0
 342 547 300 483 215 483 c 0
EndSplineSet
EndChar

StartChar: eth
Encoding: 240 240 316
Width: 1075
VWidth: 0
Flags: HW
LayerCount: 2
Fore
SplineSet
557 -17 m 0
 267 -17 69 167 69 433 c 0
 69 691 247 862 515 862 c 0
 552 862 599 852 633 842 c 1
 595 890 508 990 476 1025 c 1
 253 936 l 1
 192 1105 l 1
 350 1169 l 1
 165 1377 l 1
 454 1377 l 1
 558 1255 l 1
 798 1353 l 1
 861 1183 l 1
 680 1110 l 1
 780 996 875 889 947 770 c 1
 1003 675 1040 557 1041 424 c 1
 1041 146 851 -17 557 -17 c 0
564 179 m 0
 726 179 818 278 818 430 c 0
 818 582 723 688 558 688 c 0
 393 688 302 589 302 434 c 0
 302 285 399 179 564 179 c 0
EndSplineSet
EndChar

StartChar: exclam
Encoding: 33 33 317
Width: 617
VWidth: 0
Flags: HW
LayerCount: 2
Fore
SplineSet
430 1127 m 1
 373 418 l 1
 260 418 l 1
 196 1127 l 1
 196 1335 l 1
 430 1335 l 1
 430 1127 l 1
309 -7 m 0
 225 -7 162 61 162 139 c 0
 162 218 225 286 309 286 c 0
 392 286 455 218 455 139 c 0
 455 61 392 -7 309 -7 c 0
EndSplineSet
EndChar

StartChar: exclamdown
Encoding: 161 161 318
Width: 386
VWidth: 0
Flags: HW
LayerCount: 2
Fore
SplineSet
324 203 m 1
 324 -4 l 1
 89 -4 l 1
 89 203 l 1
 152 913 l 1
 266 913 l 1
 324 203 l 1
202 1046 m 0
 118 1046 55 1114 55 1193 c 0
 55 1273 119 1338 202 1338 c 0
 285 1338 348 1272 348 1193 c 0
 348 1114 285 1046 202 1046 c 0
EndSplineSet
EndChar

StartChar: f
Encoding: 102 102 319
Width: 710
VWidth: 0
Flags: HW
LayerCount: 2
Fore
SplineSet
194 0 m 1
 450 0 l 1
 450 839 l 1
 678 839 l 1
 678 1016 l 1
 450 1016 l 1
 450 1074 l 2
 450 1201 499 1219 581 1219 c 0
 621 1219 670 1213 700 1208 c 1
 723 1401 l 1
 656 1414 594 1420 535 1420 c 0
 340 1420 194 1350 194 1061 c 2
 194 1015 l 1
 53 998 l 1
 48 839 l 1
 194 839 l 1
 194 0 l 1
EndSplineSet
EndChar

StartChar: five
Encoding: 53 53 320
Width: 1003
VWidth: 0
Flags: HW
LayerCount: 2
Fore
SplineSet
125 308 m 1
 134 300 l 1
 148 289 277 198 420 198 c 0
 584 198 657 300 657 438 c 0
 657 577 576 662 463 662 c 0
 400 662 333 633 276 569 c 1
 272 565 l 1
 102 598 l 1
 137 1335 l 1
 859 1335 l 1
 843 1128 l 1
 362 1128 l 1
 360 1080 341 870 339 807 c 1
 387 830 451 863 500 863 c 0
 742 863 907 687 907 436 c 0
 907 173 739 -9 444 -9 c 0
 249 -9 71 99 50 118 c 1
 46 122 l 1
 125 308 l 1
EndSplineSet
EndChar

StartChar: fj
Encoding: 65537 -1 321
Width: 903
VWidth: 0
Flags: HW
LayerCount: 2
Fore
SplineSet
655 -96 m 2
 655 885 l 1
 321 885 l 1
 321 4 l 1
 154 4 l 1
 154 885 l 1
 12 885 l 1
 12 1011 l 1
 154 1011 l 1
 156 1322 237 1405 478 1405 c 2
 548 1405 l 1
 570 1272 l 1
 477 1272 l 2
 329 1272 321 1220 321 1013 c 1
 823 1013 l 1
 823 -111 l 2
 823 -355 766 -446 519 -446 c 2
 466 -446 l 1
 444 -293 l 1
 500 -293 l 2
 654 -293 655 -244 655 -96 c 2
823 1175 m 1
 655 1175 l 1
 655 1370 l 1
 823 1370 l 1
 823 1175 l 1
EndSplineSet
EndChar

StartChar: florin
Encoding: 402 402 322
Width: 923
VWidth: 0
Flags: HW
LayerCount: 2
Fore
SplineSet
39 -89 m 1
 51 -92 l 2
 56 -94 120 -114 133 -114 c 0
 199 -114 228 -45 249 43 c 0
 302 255 338 486 381 710 c 1
 243 710 l 1
 258 893 l 1
 414 893 l 1
 429 1002 l 2
 454 1179 534 1343 754 1343 c 0
 801 1343 889 1324 901 1321 c 1
 909 1318 l 1
 897 1120 l 1
 885 1125 l 2
 878 1128 801 1152 775 1152 c 0
 692 1152 672 1118 657 1037 c 2
 632 897 l 1
 802 897 l 1
 789 712 l 1
 599 712 l 1
 489 127 l 1
 451 -65 395 -299 144 -299 c 0
 113 -299 41 -282 31 -278 c 1
 24 -276 l 1
 39 -89 l 1
EndSplineSet
EndChar

StartChar: four
Encoding: 52 52 323
Width: 1085
VWidth: 0
Flags: HW
LayerCount: 2
Fore
SplineSet
566 1335 m 1
 876 1335 l 1
 876 498 l 1
 1037 498 l 1
 1023 296 l 1
 876 296 l 1
 876 8 l 1
 619 8 l 1
 619 296 l 1
 38 296 l 1
 38 473 l 1
 566 1335 l 1
620 494 m 1
 622 1055 l 1
 297 494 l 1
 620 494 l 1
EndSplineSet
EndChar

StartChar: fraction
Encoding: 8260 8260 324
Width: 1033
VWidth: 0
Flags: HW
LayerCount: 2
Fore
SplineSet
25 0 m 1
 831 1347 l 1
 1029 1347 l 1
 226 0 l 1
 25 0 l 1
EndSplineSet
EndChar

StartChar: g
Encoding: 103 103 325
Width: 1153
VWidth: 0
Flags: HW
LayerCount: 2
Fore
SplineSet
557 195 m 0
 408 195 328 343 328 526 c 0
 328 716 404 843 570 843 c 1
 713 841 787 733 787 536 c 2
 787 508 l 1
 785 323 727 195 557 195 c 0
484 -439 m 0
 864 -439 1032 -166 1032 185 c 2
 1032 1017 l 1
 805 1017 l 1
 792 893 l 1
 736 1005 641 1041 509 1041 c 0
 274 1041 72 854 72 519 c 0
 72 213 261 0 521 0 c 0
 659 0 743 70 781 156 c 1
 783 139 784 103 784 87 c 0
 784 -85 677 -237 459 -237 c 0
 357 -237 299 -215 242 -207 c 1
 226 -402 l 1
 234 -405 337 -439 484 -439 c 0
EndSplineSet
EndChar

StartChar: gamma
Encoding: 947 947 326
Width: 407
VWidth: 0
Flags: HW
LayerCount: 2
Fore
SplineSet
215 483 m 0
 131 483 87 547 87 610 c 0
 87 673 131 737 215 737 c 0
 300 737 342 673 342 610 c 0
 342 547 300 483 215 483 c 0
EndSplineSet
EndChar

StartChar: gcommaaccent
Encoding: 291 291 330
Width: 1120
VWidth: 0
Flags: HW
LayerCount: 2
Fore
SplineSet
707 1577 m 1
 606 1098 l 1
 388 1098 l 1
 540 1577 l 1
 707 1577 l 1
559 195 m 0
 729 195 787 323 789 508 c 1
 789 536 l 2
 789 733 715 841 572 843 c 1
 406 843 327 716 327 526 c 0
 327 343 410 195 559 195 c 0
516 -439 m 0
 369 -439 256 -405 255 -405 c 2
 248 -402 l 1
 264 -207 l 1
 275 -209 l 1
 275 -209 393 -237 491 -237 c 0
 709 -237 786 -85 786 87 c 0
 786 103 785 119 783 136 c 1
 745 68 661 0 523 0 c 0
 263 0 72 213 72 519 c 0
 72 854 276 1041 511 1041 c 0
 643 1041 737 991 793 903 c 1
 807 1017 l 1
 1034 1017 l 1
 1034 185 l 2
 1034 -166 896 -439 516 -439 c 0
EndSplineSet
EndChar

StartChar: germandbls
Encoding: 223 223 332
Width: 1104
VWidth: 0
Flags: HW
LayerCount: 2
Fore
SplineSet
462 172 m 1
 463 180 l 1
 680 180 l 2
 775 180 825 233 825 320 c 0
 825 459 649 518 520 600 c 0
 483 623 438 661 438 722 c 0
 438 772 472 808 505 835 c 1
 589 899 687 946 687 1046 c 0
 687 1127 619 1175 519 1175 c 0
 369 1175 338 1083 338 929 c 2
 338 0 l 1
 89 0 l 1
 89 934 l 2
 89 1202 242 1363 519 1363 c 0
 734 1363 927 1261 927 1046 c 0
 927 884 798 802 690 733 c 1
 842 646 1076 545 1076 320 c 0
 1076 100 912 0 704 0 c 2
 445 0 l 1
 439 11 l 1
 440 13 l 1
 443 26 462 172 462 172 c 1
EndSplineSet
EndChar

StartChar: grave
Encoding: 96 96 333
Width: 447
VWidth: 0
Flags: HW
LayerCount: 2
Fore
SplineSet
291 1081 m 1
 -20 1442 l 1
 279 1442 l 1
 456 1081 l 1
 291 1081 l 1
EndSplineSet
EndChar

StartChar: greater
Encoding: 62 62 334
Width: 1049
VWidth: 0
Flags: HW
LayerCount: 2
Fore
SplineSet
100 1158 m 1
 973 709 l 1
 973 588 l 1
 100 171 l 1
 100 386 l 1
 704 654 l 1
 100 953 l 1
 100 1158 l 1
EndSplineSet
EndChar

StartChar: greaterequal
Encoding: 8805 8805 335
Width: 1074
VWidth: 0
Flags: HW
LayerCount: 2
Fore
SplineSet
130 1177 m 1
 975 738 l 1
 975 624 l 1
 129 195 l 1
 129 394 l 1
 729 680 l 1
 130 980 l 1
 130 1177 l 1
123 2 m 1
 123 160 l 1
 979 159 l 1
 979 2 l 1
 123 2 l 1
EndSplineSet
EndChar

StartChar: guillemotleft
Encoding: 171 171 336
Width: 948
VWidth: 0
Flags: HW
LayerCount: 2
Fore
SplineSet
547 866 m 1
 299 519 l 1
 544 173 l 1
 344 120 l 1
 59 504 l 1
 70 547 l 1
 347 918 l 1
 547 866 l 1
669 519 m 1
 914 173 l 1
 715 120 l 1
 424 516 l 1
 717 918 l 1
 918 866 l 1
 669 519 l 1
EndSplineSet
EndChar

StartChar: guillemotright
Encoding: 187 187 337
Width: 1025
VWidth: 0
Flags: HW
LayerCount: 2
Fore
SplineSet
292 918 m 1
 584 522 l 1
 291 120 l 1
 91 173 l 1
 340 519 l 1
 93 866 l 1
 292 918 l 1
674 918 m 1
 966 522 l 1
 671 120 l 1
 473 173 l 1
 719 519 l 1
 477 866 l 1
 674 918 l 1
EndSplineSet
EndChar

StartChar: guilsinglleft
Encoding: 8249 8249 338
Width: 511
VWidth: 0
Flags: HW
LayerCount: 2
Fore
SplineSet
254 524 m 1
 487 155 l 1
 285 155 l 1
 41 524 l 1
 291 898 l 1
 493 898 l 1
 254 524 l 1
EndSplineSet
EndChar

StartChar: guilsinglright
Encoding: 8250 8250 339
Width: 511
VWidth: 0
Flags: HW
LayerCount: 2
Fore
SplineSet
493 525 m 1
 240 155 l 1
 38 155 l 1
 276 525 l 1
 44 898 l 1
 246 898 l 1
 493 525 l 1
EndSplineSet
EndChar

StartChar: h
Encoding: 104 104 340
Width: 1145
VWidth: 0
Flags: HW
LayerCount: 2
Fore
SplineSet
130 1376 m 1
 130 0 l 1
 383 0 l 1
 383 491 l 2
 383 578 390 650 404 706 c 1
 442 785 519 844 619 844 c 0
 734 844 772 775 772 618 c 2
 772 0 l 1
 1028 0 l 1
 1028 641 l 2
 1028 918 889 1041 675 1041 c 0
 531 1041 437 979 379 918 c 1
 381 970 386 1074 386 1102 c 2
 386 1393 l 1
 130 1376 l 1
EndSplineSet
EndChar

StartChar: hbar
Encoding: 295 295 341
Width: 1042
VWidth: 0
Flags: HW
LayerCount: 2
Fore
SplineSet
89 1249 m 1
 89 1369 l 1
 335 1387 l 1
 335 1249 l 1
 595 1249 l 1
 595 1108 l 1
 335 1108 l 1
 335 918 l 1
 413 993 517 1034 641 1034 c 0
 832 1034 980 922 980 615 c 2
 980 0 l 1
 734 0 l 1
 734 605 l 2
 734 772 707 844 586 844 c 0
 473 844 377 771 335 686 c 1
 335 0 l 1
 89 0 l 1
 89 1108 l 1
 -1 1108 l 1
 -1 1249 l 1
 89 1249 l 1
EndSplineSet
EndChar

StartChar: horncmb
Encoding: 795 795 343
Width: 516
VWidth: 0
Flags: HW
LayerCount: 2
Fore
SplineSet
111 266 m 1
 120 266 l 2
 134 266 150 265 164 265 c 0
 208 265 222 296 222 343 c 0
 222 384 209 435 196 471 c 2
 191 484 l 1
 316 484 l 1
 317 478 l 1
 335 434 346 386 346 342 c 0
 346 246 299 158 202 158 c 0
 175 158 147 161 119 164 c 2
 111 165 l 1
 111 266 l 1
EndSplineSet
EndChar

StartChar: hungarumlaut
Encoding: 733 733 344
Width: 867
VWidth: 0
Flags: HW
LayerCount: 2
Fore
SplineSet
123 1046 m 1
 355 1386 l 1
 581 1386 l 1
 266 1046 l 1
 123 1046 l 1
397 1046 m 1
 634 1386 l 1
 863 1386 l 1
 538 1046 l 1
 397 1046 l 1
EndSplineSet
EndChar

StartChar: hyphen
Encoding: 45 45 345
Width: 594
VWidth: 0
Flags: HW
LayerCount: 2
Fore
SplineSet
57 406 m 1
 57 606 l 1
 553 606 l 1
 553 406 l 1
 57 406 l 1
EndSplineSet
EndChar

StartChar: i
Encoding: 105 105 346
Width: 516
VWidth: 0
Flags: HW
LayerCount: 2
Fore
SplineSet
130 0 m 1
 130 1016 l 1
 386 1016 l 1
 386 0 l 1
 130 0 l 1
130 1139 m 1
 130 1357 l 1
 386 1357 l 1
 386 1139 l 1
 130 1139 l 1
EndSplineSet
EndChar

StartChar: ij
Encoding: 307 307 352
Width: 908
VWidth: 0
Flags: HW
LayerCount: 2
Fore
SplineSet
851 1139 m 1
 598 1139 l 1
 598 1357 l 1
 851 1357 l 1
 851 1139 l 1
130 1139 m 1
 130 1357 l 1
 384 1357 l 1
 384 1139 l 1
 130 1139 l 1
471 -379 m 2
 411 -379 l 1
 382 -187 l 1
 444 -187 l 2
 585 -187 598 -149 598 -4 c 2
 598 1017 l 1
 851 1017 l 1
 851 40 l 2
 851 -240 789 -379 471 -379 c 2
130 0 m 1
 130 1017 l 1
 384 1017 l 1
 384 0 l 1
 130 0 l 1
EndSplineSet
EndChar

StartChar: iota
Encoding: 953 953 355
Width: 407
VWidth: 0
Flags: HW
LayerCount: 2
Fore
SplineSet
215 483 m 0
 131 483 87 547 87 610 c 0
 87 673 131 737 215 737 c 0
 300 737 342 673 342 610 c 0
 342 547 300 483 215 483 c 0
EndSplineSet
EndChar

StartChar: iotadieresis
Encoding: 970 970 356
Width: 407
VWidth: 0
Flags: HW
LayerCount: 2
Fore
SplineSet
215 483 m 0
 131 483 87 547 87 610 c 0
 87 673 131 737 215 737 c 0
 300 737 342 673 342 610 c 0
 342 547 300 483 215 483 c 0
116 1364 m 1
 116 1119 l 1
 -78 1119 l 1
 -78 1364 l 1
 116 1364 l 1
491 1364 m 1
 491 1119 l 1
 298 1119 l 1
 298 1364 l 1
 491 1364 l 1
EndSplineSet
EndChar

StartChar: iotadieresistonos
Encoding: 912 912 357
Width: 407
VWidth: 0
Flags: HW
LayerCount: 2
Fore
SplineSet
217 1602 m 0
 133 1602 89 1666 89 1729 c 0
 89 1792 133 1856 217 1856 c 0
 302 1856 344 1792 344 1729 c 0
 344 1666 302 1602 217 1602 c 0
215 483 m 0
 131 483 87 547 87 610 c 0
 87 673 131 737 215 737 c 0
 300 737 342 673 342 610 c 0
 342 547 300 483 215 483 c 0
EndSplineSet
EndChar

StartChar: iotatonos
Encoding: 943 943 358
Width: 407
VWidth: 0
Flags: HW
LayerCount: 2
Fore
SplineSet
215 483 m 0
 131 483 87 547 87 610 c 0
 87 673 131 737 215 737 c 0
 300 737 342 673 342 610 c 0
 342 547 300 483 215 483 c 0
EndSplineSet
EndChar

StartChar: j
Encoding: 106 106 360
Width: 550
VWidth: 0
Flags: HW
LayerCount: 2
Fore
SplineSet
167 1139 m 1
 420 1139 l 1
 420 1357 l 1
 167 1357 l 1
 167 1139 l 1
-20 -379 m 1
 40 -379 l 2
 358 -379 420 -240 420 40 c 2
 420 1017 l 1
 167 1017 l 1
 167 -4 l 2
 167 -149 154 -187 13 -187 c 2
 -49 -187 l 1
 -20 -379 l 1
EndSplineSet
EndChar

StartChar: k
Encoding: 107 107 362
Width: 1100
VWidth: 0
Flags: HW
LayerCount: 2
Fore
SplineSet
130 1376 m 1
 386 1392 l 1
 386 785 l 1
 381 582 l 1
 743 1016 l 1
 1066 1016 l 1
 677 555 l 1
 1094 0 l 1
 782 0 l 1
 467 422 l 1
 386 354 l 1
 386 0 l 1
 130 0 l 1
 130 1376 l 1
EndSplineSet
EndChar

StartChar: l
Encoding: 108 108 365
Width: 635
VWidth: 0
Flags: HW
LayerCount: 2
Fore
SplineSet
470 -13 m 0
 193 -13 130 124 130 401 c 2
 130 1376 l 1
 386 1393 l 1
 386 404 l 2
 386 205 421 178 506 178 c 0
 535 178 568.25 184.75 589 187 c 1
 620 7 l 1
 613 4 545 -13 470 -13 c 0
EndSplineSet
EndChar

StartChar: lambda
Encoding: 955 955 367
Width: 407
VWidth: 0
Flags: HW
LayerCount: 2
Fore
SplineSet
215 483 m 0
 131 483 87 547 87 610 c 0
 87 673 131 737 215 737 c 0
 300 737 342 673 342 610 c 0
 342 547 300 483 215 483 c 0
EndSplineSet
EndChar

StartChar: less
Encoding: 60 60 370
Width: 1048
VWidth: 0
Flags: HW
LayerCount: 2
Fore
SplineSet
969 169 m 1
 96 588 l 1
 96 710 l 1
 969 1157 l 1
 969 952 l 1
 364 654 l 1
 967 384 l 2
 968 383 967 385 968 384 c 2
 969 382 l 1
 969 169 l 1
EndSplineSet
EndChar

StartChar: lessequal
Encoding: 8804 8804 371
Width: 1074
VWidth: 0
Flags: HW
LayerCount: 2
Fore
SplineSet
970 982 m 1
 369 681 l 1
 970 394 l 1
 970 194 l 1
 123 623 l 1
 123 738 l 1
 970 1176 l 1
 970 982 l 1
117 2 m 1
 117 159 l 1
 975 160 l 1
 975 2 l 1
 117 2 l 1
EndSplineSet
EndChar

StartChar: logicalnot
Encoding: 172 172 372
Width: 1129
VWidth: 0
Flags: HW
LayerCount: 2
Fore
SplineSet
1031 771 m 1
 1031 229 l 1
 841 229 l 1
 841 580 l 1
 112 580 l 1
 112 771 l 1
 1031 771 l 1
EndSplineSet
EndChar

StartChar: lozenge
Encoding: 9674 9674 373
Width: 1077
VWidth: 0
Flags: HW
LayerCount: 2
Fore
SplineSet
1019 667 m 1
 606 -41 l 1
 483 -41 l 1
 81 666 l 1
 490 1377 l 1
 615 1377 l 1
 1019 667 l 1
544 168 m 1
 635 337 730 502 820 667 c 1
 733 832 640 998 553 1165 c 1
 463 998 369 833 279 668 c 1
 366 503 455 335 544 168 c 1
EndSplineSet
EndChar

StartChar: lslash
Encoding: 322 322 374
Width: 597
VWidth: 0
Flags: HW
LayerCount: 2
Fore
SplineSet
21 559 m 1
 21 747 l 1
 120 807 l 1
 120 1368 l 1
 365 1387 l 1
 366 1386 366 1385 367 1384 c 1
 367 963 l 1
 507 1049 l 1
 507 859 l 1
 367 771 l 1
 367 404 l 2
 367 226 372 181 505 181 c 0
 515 181 584 187 595 188 c 2
 605 189 l 1
 621 0 l 1
 612 -1 l 2
 601 -2 506 -13 464 -13 c 0
 174 -13 120 131 120 424 c 2
 120 619 l 1
 21 559 l 1
EndSplineSet
EndChar

StartChar: m
Encoding: 109 109 375
Width: 1751
VWidth: 0
Flags: HW
LayerCount: 2
Fore
SplineSet
386 494 m 2
 386 581 393 656 406 713 c 1
 441 789 505 844 603 844 c 0
 720 844 752 754 752 590 c 2
 752 0 l 1
 1008 0 l 1
 1008 596 l 1
 1014 647 1021 690 1037 727 c 1
 1073 802 1135 844 1221 844 c 0
 1336 844 1378 762 1378 579 c 2
 1378 0 l 1
 1634 0 l 1
 1634 646 l 2
 1634 897 1515 1041 1281 1041 c 0
 1147 1041 1036 986 964 892 c 1
 926 962 843 1041 680 1041 c 0
 501 1041 412 962 362 903 c 1
 338 1016 l 1
 130 1016 l 1
 130 0 l 1
 386 0 l 1
 386 494 l 2
EndSplineSet
EndChar

StartChar: macron
Encoding: 175 175 376
Width: 801
VWidth: 0
Flags: HW
LayerCount: 2
Fore
SplineSet
89 1239 m 1
 89 1398 l 1
 738 1398 l 1
 738 1239 l 1
 89 1239 l 1
EndSplineSet
EndChar

StartChar: minus
Encoding: 8722 8722 377
Width: 1240
VWidth: 0
Flags: HW
LayerCount: 2
Fore
SplineSet
152 425 m 1
 152 609 l 1
 1106 609 l 1
 1106 425 l 1
 152 425 l 1
EndSplineSet
EndChar

StartChar: multiply
Encoding: 215 215 378
Width: 1230
VWidth: 0
Flags: HW
LayerCount: 2
Fore
SplineSet
903 130 m 1
 639 397 l 1
 373 130 l 1
 241 271 l 1
 499 538 l 1
 241 810 l 1
 373 947 l 1
 639 678 l 1
 902 947 l 1
 1038 809 l 1
 777 538 l 1
 842 473 968 342 1031 279 c 2
 1038 272 l 1
 903 130 l 1
EndSplineSet
EndChar

StartChar: n
Encoding: 110 110 379
Width: 1148
VWidth: 0
Flags: HW
LayerCount: 2
Fore
SplineSet
130 0 m 1
 386 0 l 1
 386 496 l 2
 386 582 389 656 402 713 c 1
 438 789 520 844 618 844 c 0
 744 844 774 761 775 612 c 1
 775 0 l 1
 1031 0 l 1
 1031 640 l 2
 1031 891 918 1041 683 1041 c 0
 542 1041 442 979 362 902 c 1
 338 1016 l 1
 130 1016 l 1
 130 0 l 1
EndSplineSet
EndChar

StartChar: nine
Encoding: 57 57 383
Width: 1138
VWidth: 0
Flags: HW
LayerCount: 2
Fore
SplineSet
68 924 m 0
 68 1190 279 1363 558 1363 c 0
 847 1363 1054 1190 1054 922 c 0
 1054 750 973 626 884 503 c 0
 863 475 520 13 520 13 c 1
 517 10 l 1
 204 10 l 1
 593 515 l 1
 570 508 546 502 516 502 c 0
 260 502 68 671 68 924 c 0
566 687 m 0
 730 687 794 789 794 934 c 0
 794 1074 718 1166 570 1166 c 0
 418 1166 331 1071 331 930 c 0
 331 783 405 687 566 687 c 0
EndSplineSet
EndChar

StartChar: notequal
Encoding: 8800 8800 384
Width: 1154
VWidth: 0
Flags: HW
LayerCount: 2
Fore
SplineSet
420 38 m 1
 256 63 l 1
 364 288 l 1
 132 288 l 1
 122 456 l 1
 445 456 l 1
 542 652 l 1
 132 652 l 1
 120 831 l 1
 620 831 l 1
 740 1065 l 1
 747 1064 l 1
 747 1064 886 1044 892 1043 c 1
 906 1043 l 1
 801 831 l 1
 1044 831 l 1
 1057 651 l 1
 722 651 l 1
 623 455 l 1
 1045 455 l 1
 1057 288 l 1
 543 288 l 1
 420 38 l 1
EndSplineSet
EndChar

StartChar: nu
Encoding: 957 957 386
Width: 407
VWidth: 0
Flags: HW
LayerCount: 2
Fore
SplineSet
215 483 m 0
 131 483 87 547 87 610 c 0
 87 673 131 737 215 737 c 0
 300 737 342 673 342 610 c 0
 342 547 300 483 215 483 c 0
EndSplineSet
EndChar

StartChar: numbersign
Encoding: 35 35 387
Width: 1045
VWidth: 0
Flags: HW
LayerCount: 2
Fore
SplineSet
252 547 m 1
 297 808 l 1
 111 808 l 1
 118 990 l 1
 329 990 l 1
 399 1336 l 1
 590 1336 l 1
 524 990 l 1
 672 990 l 1
 737 1336 l 1
 925 1336 l 1
 859 990 l 1
 1020 990 l 1
 1008 809 l 1
 825 809 l 1
 776 547 l 1
 949 547 l 1
 940 369 l 1
 747 369 l 1
 676 -13 l 1
 485 -13 l 1
 554 369 l 1
 408 369 l 1
 338 -13 l 1
 151 -13 l 1
 218 369 l 1
 40 369 l 1
 49 547 l 1
 252 547 l 1
440 547 m 1
 590 547 l 1
 638 809 l 1
 490 809 l 1
 440 547 l 1
EndSplineSet
EndChar

StartChar: o
Encoding: 111 111 388
Width: 1104
VWidth: 0
Flags: HW
LayerCount: 2
Fore
SplineSet
552 178 m 0
 401 178 328 310 328 511 c 0
 328 709 403 844 552 844 c 0
 703 844 776 710 776 512 c 0
 776 309 702 178 552 178 c 0
552 -18 m 0
 860 -18 1032 195 1032 512 c 0
 1032 825 849 1041 552 1041 c 0
 244 1041 72 833 72 512 c 0
 72 200 257 -18 552 -18 c 0
EndSplineSet
EndChar

StartChar: oe
Encoding: 339 339 393
Width: 1657
VWidth: 0
Flags: HW
LayerCount: 2
Fore
SplineSet
882 872 m 1
 949 977 1068 1033 1225 1034 c 1
 1511 1034 1626 816 1626 540 c 0
 1626 517 1625 466 1625 461 c 2
 1625 451 l 1
 997 451 l 1
 1004 266 1096 161 1257 161 c 0
 1379 161 1462 204 1522 249 c 1
 1532 256 l 1
 1604 100 l 1
 1598 95 l 1
 1513 30 1414 -18 1252 -18 c 0
 1076 -18 951 39 880 148 c 1
 815 52 694 -18 531 -18 c 0
 208 -18 55 224 55 511 c 0
 55 806 208 1034 532 1034 c 0
 694 1034 810 973 882 872 c 1
1000 614 m 1
 1399 614 l 1
 1398 781 1333 857 1211 857 c 0
 1119 857 1018 804 1000 614 c 1
531 159 m 0
 672 159 768 288 768 511 c 0
 768 742 675 856 530 856 c 0
 386 856 295 733 295 510 c 0
 295 292 388 159 531 159 c 0
EndSplineSet
EndChar

StartChar: ogonek
Encoding: 731 731 394
Width: 504
VWidth: 0
Flags: HW
LayerCount: 2
Fore
SplineSet
271 68 m 1
 400 68 l 1
 376 51 l 1
 302 -6 270 -70 270 -125 c 0
 270 -159 296 -194 334 -194 c 0
 386 -194 445 -168 457 -163 c 0
 458 -163 457 -162 458 -162 c 2
 470 -157 l 1
 470 -302 l 1
 465 -304 l 2
 410 -325 349 -340 290 -340 c 0
 186 -340 95 -286 95 -172 c 0
 95 -49 198 26 269 67 c 1
 271 68 l 1
EndSplineSet
EndChar

StartChar: omega
Encoding: 969 969 399
Width: 407
VWidth: 0
Flags: HW
LayerCount: 2
Fore
SplineSet
215 483 m 0
 131 483 87 547 87 610 c 0
 87 673 131 737 215 737 c 0
 300 737 342 673 342 610 c 0
 342 547 300 483 215 483 c 0
EndSplineSet
EndChar

StartChar: omegatonos
Encoding: 974 974 400
Width: 407
VWidth: 0
Flags: HW
LayerCount: 2
Fore
SplineSet
215 483 m 0
 131 483 87 547 87 610 c 0
 87 673 131 737 215 737 c 0
 300 737 342 673 342 610 c 0
 342 547 300 483 215 483 c 0
EndSplineSet
EndChar

StartChar: omicron
Encoding: 959 959 401
Width: 1071
VWidth: 0
Flags: HW
LayerCount: 2
Fore
SplineSet
545 -18 m 0
 853 -18 1027 195 1027 512 c 0
 1027 825 851 1041 554 1041 c 0
 246 1041 72 833 72 512 c 0
 72 200 250 -18 545 -18 c 0
549 844 m 0
 700 844 774 730 774 512 c 0
 774 296 700 178 550 178 c 0
 399 178 324 296 324 511 c 0
 324 729 400 844 549 844 c 0
EndSplineSet
EndChar

StartChar: omicrontonos
Encoding: 972 972 402
Width: 407
VWidth: 0
Flags: HW
LayerCount: 2
Fore
SplineSet
215 483 m 0
 131 483 87 547 87 610 c 0
 87 673 131 737 215 737 c 0
 300 737 342 673 342 610 c 0
 342 547 300 483 215 483 c 0
EndSplineSet
EndChar

StartChar: one
Encoding: 49 49 403
Width: 1015
VWidth: 0
Flags: HW
LayerCount: 2
Fore
SplineSet
897 0 m 1
 897 200 l 1
 640 200 l 1
 640 1342 l 1
 419 1342 l 1
 341 1286 213 1238 96 1206 c 1
 96 1005 l 1
 235 1027 344 1074 384 1102 c 1
 384 200 l 1
 96 200 l 1
 96 0 l 1
 897 0 l 1
EndSplineSet
EndChar

StartChar: onehalf
Encoding: 189 189 404
Width: 1593
VWidth: 0
Flags: HW
LayerCount: 2
Fore
SplineSet
232 1186 m 1
 199 1167 111 1116 102 1112 c 2
 89 1105 l 1
 89 1258 l 1
 94 1261 l 1
 106 1267 248 1350 254 1356 c 2
 257 1359 l 1
 421 1358 l 1
 421 691 l 1
 545 691 l 1
 545 553 l 1
 106 553 l 1
 106 691 l 1
 232 691 l 1
 232 1186 l 1
464 19 m 1
 262 19 l 1
 1178 1347 l 1
 1378 1347 l 1
 464 19 l 1
1514 -26 m 1
 1002 -26 l 1
 1003 113 l 1
 1006 115 l 1
 1182 268 1360 388 1360 510 c 0
 1360 579 1302 618 1246 618 c 0
 1183 618 1109 591 1068 535 c 2
 1059 523 l 1
 991 646 l 1
 994 651 l 1
 1050 733 1150 772 1265 772 c 0
 1402 772 1531 678 1531 515 c 0
 1531 342 1411 249 1250 114 c 1
 1531 114 l 1
 1514 -26 l 1
EndSplineSet
EndChar

StartChar: onequarter
Encoding: 188 188 405
Width: 1525
VWidth: 0
Flags: HW
LayerCount: 2
Fore
SplineSet
87 544 m 1
 87 696 l 1
 214 696 l 1
 214 1171 l 1
 180 1155 91 1114 85 1111 c 2
 70 1103 l 1
 70 1257 l 1
 75 1260 l 2
 87 1267 242 1342 258 1354 c 1
 261 1359 l 1
 402 1358 l 1
 402 696 l 1
 527 696 l 1
 527 544 l 1
 87 544 l 1
459 0 m 1
 258 0 l 1
 1174 1347 l 1
 1370 1347 l 1
 459 0 l 1
1382 9 m 1
 1223 9 l 1
 1223 161 l 1
 866 161 l 1
 866 305 l 1
 1213 798 l 1
 1384 798 l 1
 1384 301 l 1
 1485 301 l 1
 1488 161 l 1
 1383 161 l 1
 1382 9 l 1
1064 301 m 1
 1221 301 l 1
 1221 560 l 1
 1064 301 l 1
EndSplineSet
EndChar

StartChar: ordfeminine
Encoding: 170 170 406
Width: 664
VWidth: 0
Flags: HW
LayerCount: 2
Fore
SplineSet
219 883 m 0
 219 834 248 813 286 813 c 0
 341 813 399 846 443 909 c 1
 443 996 l 1
 302 977 219 958 219 883 c 0
443 1134 m 1
 442 1222 413 1250 343 1250 c 0
 286 1250 213 1236 125 1200 c 2
 115 1196 l 1
 71 1311 l 1
 79 1315 l 1
 163 1359 264 1384 358 1384 c 0
 493 1384 609 1325 609 1156 c 2
 609 813 l 2
 609 810 609 726 610 709 c 2
 611 698 l 1
 472 698 l 1
 459 762 l 1
 417 717 337 686 269 686 c 0
 157 686 60 754 60 885 c 0
 60 1079 280 1096 443 1114 c 1
 443 1134 l 1
613 486 m 1
 94 486 l 1
 94 611 l 1
 613 611 l 1
 613 486 l 1
EndSplineSet
EndChar

StartChar: oslash
Encoding: 248 248 407
Width: 1039
VWidth: 0
Flags: HW
LayerCount: 2
Fore
SplineSet
276 -203 m 1
 203 -165 l 1
 291 43 l 1
 136 128 54 299 54 510 c 0
 54 815 221 1034 533 1034 c 0
 596 1034 648 1026 700 1010 c 1
 785 1177 l 1
 865 1152 l 1
 779 975 l 1
 928 889 1006 721 1006 510 c 0
 1006 212 840 -14 529 -14 c 0
 469 -14 416 -6 367 9 c 1
 276 -203 l 1
372 248 m 1
 624 834 l 1
 597 847 567 853 530 853 c 0
 379 853 293 729 293 516 c 0
 293 400 319 307 372 248 c 1
531 164 m 0
 683 164 766 291 766 500 c 0
 766 615 743 705 695 765 c 1
 443 181 l 1
 468 170 498 164 531 164 c 0
EndSplineSet
EndChar

StartChar: p
Encoding: 112 112 410
Width: 1147
VWidth: 0
Flags: HW
LayerCount: 2
Fore
SplineSet
130 1016 m 1
 351 1016 l 1
 373 906 l 1
 432 976 550 1041 678 1041 c 0
 926 1041 1075 806 1075 513 c 0
 1075 207 917 -18 657 -18 c 0
 542 -18 448 28 381 99 c 1
 384 54 386 13 386 -15 c 2
 386 -395 l 1
 130 -408 l 1
 130 1016 l 1
609 179 m 0
 735 179 819 291 819 515 c 0
 819 746 732 844 605 844 c 0
 469 844 386 755 384 530 c 1
 384 277 465 179 609 179 c 0
EndSplineSet
EndChar

StartChar: paragraph
Encoding: 182 182 411
Width: 1054
VWidth: 0
Flags: HW
LayerCount: 2
Fore
SplineSet
555 -134 m 1
 367 -134 l 1
 367 705 l 1
 186 724 64 861 64 1036 c 0
 64 1276 278 1360 541 1360 c 2
 920 1360 l 1
 920 1188 l 1
 847 1188 l 1
 847 -134 l 1
 679 -134 l 1
 679 1188 l 1
 555 1188 l 1
 555 -134 l 1
EndSplineSet
EndChar

StartChar: parenleft
Encoding: 40 40 412
Width: 570
VWidth: 0
Flags: HW
LayerCount: 2
Fore
SplineSet
565 -245 m 1
 333 -245 l 1
 330 -237 l 1
 180 -29 76 234 76 550 c 0
 76 869 177 1139 329 1354 c 1
 332 1362 l 1
 566 1362 l 1
 556 1343 l 1
 457 1201 317 868 317 552 c 0
 317 238 460 -90 555 -226 c 1
 565 -245 l 1
EndSplineSet
EndChar

StartChar: parenright
Encoding: 41 41 413
Width: 570
VWidth: 0
Flags: HW
LayerCount: 2
Fore
SplineSet
258 -245 m 1
 26 -245 l 1
 35 -226 l 1
 129 -90 273 238 273 552 c 0
 273 868 133 1201 34 1343 c 1
 25 1362 l 1
 258 1362 l 1
 260 1354 l 1
 410 1140 514 868 514 550 c 0
 514 233 411 -28 260 -237 c 1
 258 -245 l 1
EndSplineSet
EndChar

StartChar: period
Encoding: 46 46 414
Width: 538
VWidth: 0
Flags: HW
LayerCount: 2
Fore
SplineSet
270 3 m 0
 187 3 122 69 122 148 c 0
 122 227 186 295 270 295 c 0
 353 295 416 227 416 148 c 0
 416 70 353 3 270 3 c 0
EndSplineSet
EndChar

StartChar: phi
Encoding: 966 966 415
Width: 407
VWidth: 0
Flags: HW
LayerCount: 2
Fore
SplineSet
215 483 m 0
 131 483 87 547 87 610 c 0
 87 673 131 737 215 737 c 0
 300 737 342 673 342 610 c 0
 342 547 300 483 215 483 c 0
EndSplineSet
EndChar

StartChar: pi
Encoding: 960 960 416
Width: 1247
VWidth: 0
Flags: HW
LayerCount: 2
Fore
SplineSet
514 825 m 1
 502 531 470 191 374 6 c 1
 371 1 l 1
 161 1 l 1
 167 14 l 1
 256 199 295 740 300 846 c 1
 207 839 146 817 83 779 c 1
 71 772 l 1
 45 950 l 1
 50 954 l 1
 133 1017 227 1024 381 1024 c 2
 1181 1024 l 1
 1181 841 l 1
 1007 841 l 1
 1007 298 l 2
 1007 222 1013 191 1060 191 c 0
 1087 191 1121 204 1150 213 c 1
 1163 216 l 1
 1162 203 l 1
 1160 160 1151 16 1151 14 c 2
 1151 7 l 1
 1143 6 l 1
 1103 -1 1065 -6 1023 -6 c 0
 844 -6 805 121 805 288 c 2
 808 825 l 1
 514 825 l 1
EndSplineSet
EndChar

StartChar: plus
Encoding: 43 43 417
Width: 1035
VWidth: 0
Flags: HW
LayerCount: 2
Fore
SplineSet
430 692 m 1
 430 1065 l 1
 623 1065 l 1
 623 692 l 1
 983 692 l 1
 983 502 l 1
 622 502 l 1
 622 130 l 1
 429 130 l 1
 429 502 l 1
 68 502 l 1
 68 692 l 1
 430 692 l 1
EndSplineSet
EndChar

StartChar: plusminus
Encoding: 177 177 418
Width: 1131
VWidth: 0
Flags: HW
LayerCount: 2
Fore
SplineSet
477 775 m 1
 477 1101 l 1
 670 1101 l 1
 670 775 l 1
 1006 775 l 1
 1006 575 l 1
 671 575 l 1
 671 241 l 1
 477 241 l 1
 477 575 l 1
 142 575 l 1
 142 775 l 1
 477 775 l 1
142 0 m 1
 142 177 l 1
 1006 177 l 1
 1006 0 l 1
 142 0 l 1
EndSplineSet
EndChar

StartChar: psi
Encoding: 968 968 419
Width: 407
VWidth: 0
Flags: HW
LayerCount: 2
Fore
SplineSet
215 483 m 0
 131 483 87 547 87 610 c 0
 87 673 131 737 215 737 c 0
 300 737 342 673 342 610 c 0
 342 547 300 483 215 483 c 0
EndSplineSet
EndChar

StartChar: q
Encoding: 113 113 420
Width: 1146
VWidth: 0
Flags: HW
LayerCount: 2
Fore
SplineSet
1018 1016 m 1
 793 1016 l 1
 777 907 l 1
 727 973 641 1041 499 1041 c 0
 227 1041 72 817 72 513 c 0
 72 202 244 -18 503 -18 c 0
 649 -18 727 54 765 107 c 1
 763 71 762 46 762 16 c 2
 762 -408 l 1
 1018 -393 l 1
 1018 1016 l 1
549 177 m 0
 416 177 328 283 328 511 c 0
 328 744 419 843 546 843 c 0
 691 843 772 746 772 495 c 1
 769 263 688 177 549 177 c 0
EndSplineSet
EndChar

StartChar: question
Encoding: 63 63 421
Width: 773
VWidth: 0
Flags: HW
LayerCount: 2
Fore
SplineSet
357 1177 m 0
 242 1177 169 1135 117 1103 c 1
 108 1098 l 1
 38 1263 l 1
 45 1267 l 1
 135 1327 235 1363 381 1363 c 0
 543 1363 732 1265 732 1050 c 0
 732 830 528 691 395 423 c 1
 392 418 l 1
 281 418 l 1
 283 429 l 1
 316 688 527 861 527 1019 c 1
 526 1116 464 1177 357 1177 c 0
338 -7 m 0
 257 -7 191 60 191 139 c 0
 191 218 256 286 338 286 c 0
 418 286 478 218 478 139 c 0
 478 61 418 -7 338 -7 c 0
EndSplineSet
EndChar

StartChar: questiondown
Encoding: 191 191 422
Width: 901
VWidth: 0
Flags: HW
LayerCount: 2
Fore
SplineSet
370 1177 m 0
 370 1255 430 1323 510 1323 c 0
 591 1323 657 1256 657 1177 c 0
 657 1098 592 1030 510 1030 c 0
 430 1030 370 1098 370 1177 c 0
491 139 m 0
 606 139 679 181 731 213 c 1
 740 218 l 1
 810 53 l 1
 803 49 l 1
 713 -11 613 -47 467 -47 c 0
 305 -47 116 51 116 266 c 0
 116 486 320 625 453 893 c 1
 456 898 l 1
 567 898 l 1
 565 887 l 1
 532 628 321 455 321 297 c 1
 322 200 384 139 491 139 c 0
EndSplineSet
EndChar

StartChar: quotedbl
Encoding: 34 34 423
Width: 689
VWidth: 0
Flags: HW
LayerCount: 2
Fore
SplineSet
122 848 m 1
 90 1347 l 1
 311 1347 l 1
 283 848 l 1
 122 848 l 1
429 854 m 1
 399 1347 l 1
 618 1347 l 1
 589 854 l 1
 429 854 l 1
EndSplineSet
EndChar

StartChar: quotedblbase
Encoding: 8222 8222 424
Width: 880
VWidth: 0
Flags: HW
LayerCount: 2
Fore
SplineSet
135 -230 m 1
 237 227 l 1
 461 227 l 1
 307 -230 l 1
 135 -230 l 1
444 -230 m 1
 551 227 l 1
 773 227 l 1
 621 -230 l 1
 444 -230 l 1
EndSplineSet
EndChar

StartChar: quotedblleft
Encoding: 8220 8220 425
Width: 649
VWidth: 0
Flags: HW
LayerCount: 2
Fore
SplineSet
44 1271 m 1
 252 1380 l 1
 353 1009 l 1
 199 897 l 1
 44 1271 l 1
317 1271 m 1
 517 1381 l 1
 623 1009 l 1
 463 897 l 1
 317 1271 l 1
EndSplineSet
EndChar

StartChar: quotedblright
Encoding: 8221 8221 426
Width: 841
VWidth: 0
Flags: HW
LayerCount: 2
Fore
SplineSet
150 908 m 1
 251 1378 l 1
 458 1378 l 1
 320 908 l 1
 150 908 l 1
418 900 m 1
 510 1378 l 1
 726 1378 l 1
 578 900 l 1
 418 900 l 1
EndSplineSet
EndChar

StartChar: quoteleft
Encoding: 8216 8216 427
Width: 384
VWidth: 0
Flags: HW
LayerCount: 2
Fore
SplineSet
44 1271 m 1
 251 1380 l 1
 359 1009 l 1
 199 898 l 1
 44 1271 l 1
EndSplineSet
EndChar

StartChar: quoteright
Encoding: 8217 8217 428
Width: 383
VWidth: 0
Flags: HW
LayerCount: 2
Fore
SplineSet
46 920 m 1
 145 1378 l 1
 362 1378 l 1
 214 920 l 1
 46 920 l 1
EndSplineSet
EndChar

StartChar: quotesinglbase
Encoding: 8218 8218 429
Width: 488
VWidth: 0
Flags: HW
LayerCount: 2
Fore
SplineSet
96 -230 m 1
 196 227 l 1
 414 227 l 1
 266 -230 l 1
 96 -230 l 1
EndSplineSet
EndChar

StartChar: quotesingle
Encoding: 39 39 430
Width: 514
VWidth: 0
Flags: HW
LayerCount: 2
Fore
SplineSet
184 833 m 1
 152 1341 l 1
 362 1341 l 1
 337 833 l 1
 184 833 l 1
EndSplineSet
EndChar

StartChar: r
Encoding: 114 114 431
Width: 740
VWidth: 0
Flags: HW
LayerCount: 2
Fore
SplineSet
130 1016 m 1
 346 1016 l 1
 374 860 l 1
 437 950 540 1021 658 1021 c 0
 681 1021 702 1021 729 1015 c 1
 725 799 l 1
 692 805 667 807 641 807 c 0
 469 807 386 707 386 551 c 2
 386 0 l 1
 130 0 l 1
 130 1016 l 1
EndSplineSet
EndChar

StartChar: registered
Encoding: 174 174 435
Width: 1526
VWidth: 0
Flags: HW
LayerCount: 2
Fore
SplineSet
1469 688 m 0
 1469 285 1147 0 770 0 c 0
 395 0 72 285 72 688 c 0
 72 1091 394 1377 769 1377 c 0
 1146 1377 1469 1090 1469 688 c 0
195 688 m 0
 195 367 439 108 770 108 c 0
 1104 108 1346 367 1346 687 c 0
 1346 1007 1104 1268 769 1268 c 0
 438 1268 195 1007 195 688 c 0
736 988 m 2
 636 988 l 1
 636 752 l 1
 744 752 l 2
 868 752 935 768 935 875 c 0
 935 984 873 988 736 988 c 2
1086 877 m 0
 1086 750 1038 675 904 641 c 1
 958 569 1047 402 1121 266 c 1
 1128 251 l 1
 959 251 l 1
 957 256 l 1
 925 317 788 590 758 620 c 1
 637 620 l 1
 637 251 l 1
 487 251 l 1
 487 1119 l 1
 774 1119 l 2
 958 1119 1086 1052 1086 877 c 0
EndSplineSet
EndChar

StartChar: rho
Encoding: 961 961 436
Width: 1101
VWidth: 0
Flags: HW
LayerCount: 2
Fore
SplineSet
130 1017 m 1
 349 1017 l 1
 371 906 l 1
 430 976 548 1041 676 1041 c 0
 924 1041 1070 806 1070 513 c 0
 1070 207 915 -18 655 -18 c 0
 540 -18 446 28 379 99 c 1
 382 54 384 13 384 -15 c 2
 384 -395 l 1
 130 -408 l 1
 130 1017 l 1
607 179 m 0
 733 179 817 291 817 515 c 0
 817 746 730 844 603 844 c 0
 467 844 384 755 382 530 c 1
 382 277 463 179 607 179 c 0
EndSplineSet
EndChar

StartChar: ring
Encoding: 730 730 437
Width: 581
VWidth: 0
Flags: HW
LayerCount: 2
Fore
SplineSet
297 1140 m 0
 352 1140 383 1184 383 1235 c 0
 383 1284 352 1330 297 1330 c 0
 244 1330 212 1283 212 1235 c 0
 212 1183 240 1140 297 1140 c 0
297 1039 m 0
 168 1039 91 1132 91 1235 c 0
 91 1338 167 1430 297 1430 c 0
 428 1430 503 1337 503 1235 c 0
 503 1132 426 1039 297 1039 c 0
EndSplineSet
EndChar

StartChar: s
Encoding: 115 115 438
Width: 853
VWidth: 0
Flags: HW
LayerCount: 2
Fore
SplineSet
421 -17 m 0
 189 -17 88 51 68 61 c 1
 94 257 l 1
 176 212 313 167 413 167 c 0
 508 167 561 204 563 275 c 1
 563 340 505 361 384 421 c 2
 331 447 l 1
 162 526 72 586 71 748 c 1
 71 940 218 1041 444 1041 c 0
 567 1041 676 1017 780 965 c 1
 715 785 l 1
 632 825 536 854 447 854 c 0
 360 854 312 827 312 768 c 0
 312 709 359 694 486 637 c 0
 503 630 523 620 541 612 c 0
 712 540 806 466 806 306 c 0
 806 99 662 -17 421 -17 c 0
EndSplineSet
EndChar

StartChar: semicolon
Encoding: 59 59 444
Width: 454
VWidth: 0
Flags: HW
LayerCount: 2
Fore
SplineSet
92 -287 m 1
 142 248 l 1
 366 248 l 1
 250 -287 l 1
 92 -287 l 1
108 767 m 1
 108 1022 l 1
 363 1022 l 1
 363 767 l 1
 108 767 l 1
EndSplineSet
EndChar

StartChar: seven
Encoding: 55 55 445
Width: 1021
VWidth: 0
Flags: HW
LayerCount: 2
Fore
SplineSet
937 1342 m 1
 937 1178 l 1
 485 -1 l 1
 229 -1 l 1
 648 1138 l 1
 88 1138 l 1
 100 1342 l 1
 937 1342 l 1
EndSplineSet
EndChar

StartChar: sigma
Encoding: 963 963 446
Width: 407
VWidth: 0
Flags: HW
LayerCount: 2
Fore
SplineSet
215 483 m 0
 131 483 87 547 87 610 c 0
 87 673 131 737 215 737 c 0
 300 737 342 673 342 610 c 0
 342 547 300 483 215 483 c 0
EndSplineSet
EndChar

StartChar: sigma1
Encoding: 962 962 447
Width: 407
VWidth: 0
Flags: HW
LayerCount: 2
Fore
SplineSet
215 483 m 0
 131 483 87 547 87 610 c 0
 87 673 131 737 215 737 c 0
 300 737 342 673 342 610 c 0
 342 547 300 483 215 483 c 0
EndSplineSet
EndChar

StartChar: six
Encoding: 54 54 448
Width: 1140
VWidth: 0
Flags: HW
LayerCount: 2
Fore
SplineSet
612 1330 m 1
 615 1334 l 1
 931 1334 l 1
 542 835 l 1
 564 841 589 847 619 847 c 0
 875 847 1068 676 1068 426 c 0
 1068 163 856 -9 578 -9 c 0
 289 -9 82 165 82 431 c 0
 82 607 166 732 264 862 c 0
 282 885 612 1330 612 1330 c 1
568 189 m 0
 720 189 804 283 804 422 c 0
 804 566 732 659 571 659 c 0
 406 659 343 561 343 420 c 0
 343 281 420 189 568 189 c 0
EndSplineSet
EndChar

StartChar: slash
Encoding: 47 47 449
Width: 851
VWidth: 0
Flags: HW
LayerCount: 2
Fore
SplineSet
26 -167 m 1
 579 1364 l 1
 793 1364 l 1
 237 -167 l 1
 26 -167 l 1
EndSplineSet
EndChar

StartChar: sterling
Encoding: 163 163 451
Width: 1006
VWidth: 0
Flags: HW
LayerCount: 2
Fore
SplineSet
218 446 m 2
 218 605 l 1
 53 605 l 1
 53 785 l 1
 218 785 l 1
 218 869 l 2
 218 1153 329 1361 623 1361 c 0
 763 1361 880 1311 971 1234 c 1
 977 1228 l 1
 875 1063 l 1
 867 1069 l 1
 790 1122 720 1155 633 1155 c 0
 507 1155 457 1075 457 934 c 2
 457 785 l 1
 800 785 l 1
 800 606 l 1
 457 606 l 1
 457 481 l 2
 457 377 436 293 374 229 c 1
 397 229 438 230 442 230 c 2
 989 230 l 1
 983 19 l 1
 71 19 l 1
 55 205 l 1
 62 208 l 1
 177 256 218 311 218 446 c 2
EndSplineSet
EndChar

StartChar: summation
Encoding: 8721 8721 452
Width: 1113
VWidth: 0
Flags: HW
LayerCount: 2
Fore
SplineSet
65 1335 m 1
 1056 1335 l 1
 1056 1147 l 1
 362 1147 l 1
 828 530 l 1
 338 -105 l 1
 1095 -105 l 1
 1095 -298 l 1
 47 -298 l 1
 47 -175 l 1
 585 523 l 1
 65 1207 l 1
 65 1335 l 1
EndSplineSet
EndChar

StartChar: t
Encoding: 116 116 453
Width: 790
VWidth: 0
Flags: HW
LayerCount: 2
Fore
SplineSet
745 20 m 1
 712 191 l 1
 707 188 648 172 589 172 c 0
 490 172 428 222 428 386 c 2
 428 852 l 1
 703 852 l 1
 703 1016 l 1
 428 1016 l 1
 428 1268 l 1
 246 1268 l 1
 188 1016 l 1
 25 1004 l 1
 11 853 l 1
 172 853 l 1
 172 392 l 1
 173 126 269 -13 536 -13 c 0
 640 -13 737 17 745 20 c 1
EndSplineSet
EndChar

StartChar: tau
Encoding: 964 964 454
Width: 407
VWidth: 0
Flags: HW
LayerCount: 2
Fore
SplineSet
215 483 m 0
 131 483 87 547 87 610 c 0
 87 673 131 737 215 737 c 0
 300 737 342 673 342 610 c 0
 342 547 300 483 215 483 c 0
EndSplineSet
EndChar

StartChar: theta
Encoding: 952 952 456
Width: 407
VWidth: 0
Flags: HW
LayerCount: 2
Fore
SplineSet
215 483 m 0
 131 483 87 547 87 610 c 0
 87 673 131 737 215 737 c 0
 300 737 342 673 342 610 c 0
 342 547 300 483 215 483 c 0
EndSplineSet
EndChar

StartChar: three
Encoding: 51 51 457
Width: 998
VWidth: 0
Flags: HW
LayerCount: 2
Fore
SplineSet
116 295 m 1
 126 287 l 1
 189 235 313 196 431 196 c 0
 561 196 642 273 642 385 c 0
 642 564 513 594 302 599 c 1
 242 599 l 1
 242 799 l 1
 302 799 l 1
 489 800 618 833 618 981 c 0
 618 1071 552 1159 415 1159 c 0
 301 1159 199 1125 125 1077 c 1
 115 1071 l 1
 44 1259 l 1
 51 1264 l 1
 153 1327 272 1363 437 1363 c 0
 684 1363 864 1215 864 1000 c 0
 864 863 798 760 673 707 c 1
 819 663 900 528 900 373 c 0
 900 122 686 -9 430 -9 c 0
 278 -9 131 33 49 103 c 1
 44 108 l 1
 116 295 l 1
EndSplineSet
EndChar

StartChar: threequarters
Encoding: 190 190 458
Width: 1482
VWidth: 0
Flags: HW
LayerCount: 2
Fore
SplineSet
439 19 m 1
 235 19 l 1
 1149 1347 l 1
 1347 1347 l 1
 439 19 l 1
823 317 m 1
 1169 820 l 1
 1340 820 l 1
 1340 318 l 1
 1442 318 l 1
 1444 179 l 1
 1339 179 l 1
 1338 19 l 1
 1179 19 l 1
 1179 179 l 1
 823 179 l 1
 823 317 l 1
122 769 m 1
 133 759 l 2
 171 725 247 706 303 706 c 0
 377 706 423 739 423 810 c 0
 423 874 371 903 272 903 c 1
 193 902 l 1
 193 1043 l 1
 273 1043 l 2
 371 1043 402 1077 402 1126 c 0
 402 1170 374 1201 308 1201 c 0
 245 1201 172 1177 136 1151 c 1
 127 1144 l 1
 63 1255 l 1
 69 1261 l 1
 132 1314 228 1346 321 1346 c 0
 448 1346 576 1280 576 1132 c 0
 576 1114 567 1027 483 986 c 1
 542 954 594 889 594 808 c 0
 594 644 456 562 310 562 c 0
 229 562 144 587 77 636 c 1
 71 641 l 1
 122 769 l 1
1019 318 m 1
 1177 318 l 1
 1177 575 l 1
 1019 318 l 1
EndSplineSet
EndChar

StartChar: tilde
Encoding: 732 732 459
Width: 690
VWidth: 0
Flags: HW
LayerCount: 2
Fore
SplineSet
484 1260 m 1
 504 1261 515 1281 516 1335 c 1
 516 1345 l 1
 666 1345 l 1
 666 1335 l 2
 666 1249 656 1103 508 1103 c 0
 407 1103 274 1193 217 1193 c 0
 196 1193 183 1175 182 1114 c 1
 182 1103 l 1
 35 1103 l 1
 35 1113 l 2
 35 1207 49 1345 197 1345 c 0
 318 1345 453 1260 484 1260 c 1
EndSplineSet
EndChar

StartChar: tonos
Encoding: 900 900 460
Width: 407
VWidth: 0
Flags: HW
LayerCount: 2
Fore
SplineSet
215 483 m 0
 131 483 87 547 87 610 c 0
 87 673 131 737 215 737 c 0
 300 737 342 673 342 610 c 0
 342 547 300 483 215 483 c 0
EndSplineSet
EndChar

StartChar: trademark
Encoding: 8482 8482 461
Width: 1605
VWidth: 0
Flags: HW
LayerCount: 2
Fore
SplineSet
281 1189 m 1
 57 1189 l 1
 56 1346 l 1
 665 1346 l 1
 665 1189 l 1
 447 1189 l 1
 447 595 l 1
 281 595 l 1
 281 1189 l 1
703 1346 m 1
 911 1346 l 1
 1096 862 l 1
 1290 1346 l 1
 1484 1346 l 1
 1484 595 l 1
 1322 595 l 1
 1322 1046 l 1
 1143 610 l 1
 1037 610 l 1
 1036 614 l 1
 868 1037 l 1
 868 595 l 1
 703 595 l 1
 703 1346 l 1
EndSplineSet
EndChar

StartChar: two
Encoding: 50 50 462
Width: 965
VWidth: 0
Flags: HW
LayerCount: 2
Fore
SplineSet
618 970 m 0
 618 1077 537 1158 427 1158 c 0
 304 1158 180 1075 143 1046 c 1
 68 1232 l 1
 145 1299 277 1363 440 1363 c 0
 687 1363 877 1220 877 972 c 0
 877 813 742 614 628 494 c 1
 363 200 l 1
 869 200 l 1
 852 0 l 1
 66 0 l 1
 60 207 l 1
 477 680 l 1
 558 769 618 885 618 970 c 0
EndSplineSet
EndChar

StartChar: u
Encoding: 117 117 463
Width: 1181
VWidth: 0
Flags: HW
LayerCount: 2
Fore
SplineSet
1013 1016 m 1
 757 1016 l 1
 757 520 l 2
 757 434 759 362 746 305 c 1
 710 228 627 172 530 172 c 0
 404 172 373 253 373 404 c 2
 373 1016 l 1
 117 1016 l 1
 117 377 l 2
 117 126 230 -24 465 -24 c 0
 606 -24 709 40 785 125 c 1
 809 0 l 1
 1013 0 l 1
 1013 1016 l 1
EndSplineSet
EndChar

StartChar: underscore
Encoding: 95 95 472
Width: 1012
VWidth: 0
Flags: HW
LayerCount: 2
Fore
SplineSet
59 -273 m 1
 59 -98 l 1
 973 -98 l 1
 973 -273 l 1
 59 -273 l 1
EndSplineSet
EndChar

StartChar: uni00AD
Encoding: 173 173 475
Width: 652
VWidth: 0
Flags: HW
LayerCount: 2
Fore
SplineSet
61 349 m 1
 61 551 l 1
 608 551 l 1
 608 349 l 1
 61 349 l 1
EndSplineSet
EndChar

StartChar: uni00B3
Encoding: 179 179 476
Width: 704
VWidth: 0
Flags: HW
LayerCount: 2
Fore
SplineSet
155 747 m 1
 165 738 l 1
 204 701 286 677 342 677 c 0
 416 677 463 713 463 789 c 0
 463 859 405 894 305 894 c 1
 226 893 l 1
 226 1033 l 1
 307 1033 l 2
 405 1033 436 1068 436 1120 c 0
 436 1168 409 1204 344 1204 c 0
 281 1204 206 1177 170 1151 c 1
 161 1143 l 1
 110 1259 l 1
 115 1264 l 1
 178 1315 262 1346 353 1346 c 0
 484 1346 606 1279 606 1122 c 1
 604 1058 576 1003 508 971 c 1
 568 938 623 872 623 788 c 0
 623 622 491 536 343 536 c 0
 262 536 178 562 110 611 c 1
 104 615 l 1
 155 747 l 1
EndSplineSet
EndChar

StartChar: uni00B9
Encoding: 185 185 477
Width: 655
VWidth: 0
Flags: HW
LayerCount: 2
Fore
SplineSet
129 534 m 1
 129 686 l 1
 255 686 l 1
 255 1163 l 1
 221 1147 132 1105 126 1102 c 2
 112 1095 l 1
 112 1257 l 1
 117 1260 l 1
 130 1266 283 1343 299 1354 c 1
 302 1359 l 1
 445 1358 l 1
 445 686 l 1
 570 686 l 1
 570 534 l 1
 129 534 l 1
EndSplineSet
EndChar

StartChar: uni018F
Encoding: 399 399 478
Width: 1277
VWidth: 0
Flags: HW
LayerCount: 2
Fore
SplineSet
54 733 m 1
 940 733 l 1
 920 997 779 1152 529 1152 c 0
 392 1152 281 1111 192 1059 c 1
 184 1054 l 1
 101 1231 l 1
 107 1236 l 1
 222 1326 362 1363 540 1363 c 0
 964 1363 1204 1061 1204 677 c 0
 1204 257 945 -18 581 -18 c 0
 259 -18 67 205 53 646 c 0
 52 672 54 707 54 723 c 2
 54 733 l 1
590 190 m 0
 782 190 894 328 928 529 c 1
 296 529 l 1
 314 331 400 190 590 190 c 0
EndSplineSet
EndChar

StartChar: uni01C4
Encoding: 452 452 479
Width: 2391
VWidth: 0
Flags: HW
LayerCount: 2
Fore
SplineSet
418 1122 m 1
 418 220 l 1
 565 220 l 2
 855 220 995 377 995 671 c 0
 995 992 847 1122 539 1122 c 2
 418 1122 l 1
130 0 m 1
 130 1342 l 1
 528 1342 l 2
 977 1342 1282 1130 1282 676 c 0
 1282 238 994 0 551 0 c 2
 130 0 l 1
2204 1741 m 1
 1956 1404 l 1
 1766 1404 l 1
 1518 1741 l 1
 1719 1741 l 1
 1849 1570 l 1
 1999 1741 l 1
 2204 1741 l 1
1424 1342 m 1
 2385 1342 l 1
 2385 1150 l 1
 1726 220 l 1
 2391 220 l 1
 2389 0 l 1
 1401 0 l 1
 1401 172 l 1
 2073 1122 l 1
 1423 1122 l 1
 1424 1342 l 1
EndSplineSet
EndChar

StartChar: uni01C5
Encoding: 453 453 480
Width: 2184
VWidth: 0
Flags: HW
LayerCount: 2
Fore
SplineSet
1634 1450 m 1
 1764 1279 l 1
 1914 1450 l 1
 2119 1450 l 1
 1871 1113 l 1
 1681 1113 l 1
 1433 1450 l 1
 1634 1450 l 1
1282 676 m 0
 1282 238 994 0 551 0 c 2
 130 0 l 1
 130 1342 l 1
 528 1342 l 2
 977 1342 1282 1130 1282 676 c 0
539 1122 m 2
 418 1122 l 1
 418 220 l 1
 565 220 l 2
 855 220 995 377 995 671 c 0
 995 992 847 1122 539 1122 c 2
2173 0 m 1
 1406 0 l 1
 1403 3 l 1
 1403 158 l 1
 1870 832 l 1
 1425 832 l 1
 1425 1017 l 1
 2157 1017 l 1
 2157 840 l 1
 1715 192 l 1
 2173 192 l 1
 2173 0 l 1
EndSplineSet
EndChar

StartChar: uni01C6
Encoding: 454 454 481
Width: 1958
VWidth: 0
Flags: HW
LayerCount: 2
Fore
SplineSet
1408 1450 m 1
 1538 1279 l 1
 1688 1450 l 1
 1893 1450 l 1
 1645 1113 l 1
 1455 1113 l 1
 1207 1450 l 1
 1408 1450 l 1
1947 0 m 1
 1180 0 l 1
 1177 3 l 1
 1177 158 l 1
 1644 832 l 1
 1199 832 l 1
 1199 1017 l 1
 1931 1017 l 1
 1931 840 l 1
 1489 192 l 1
 1947 192 l 1
 1947 0 l 1
330 512 m 0
 330 285 422 179 550 179 c 0
 689 179 772 267 774 497 c 1
 774 748 693 843 548 843 c 0
 423 843 330 742 330 512 c 0
771 920 m 1
 767 963 765 1017 765 1052 c 2
 765 1376 l 1
 1019 1393 l 1
 1019 0 l 1
 799 0 l 1
 775 117 l 1
 735 55 663 -17 494 -17 c 0
 233 -17 78 200 78 517 c 0
 78 826 232 1041 494 1041 c 0
 646 1041 727 978 771 920 c 1
EndSplineSet
EndChar

StartChar: uni01C7
Encoding: 455 455 482
Width: 1493
VWidth: 0
Flags: HW
LayerCount: 2
Fore
SplineSet
1509 213 m 1
 1502 0 l 1
 684 0 l 1
 684 1342 l 1
 972 1342 l 1
 972 213 l 1
 1509 213 l 1
-26 -285 m 1
 -38 -75 l 1
 1 -82 42 -84 65 -84 c 0
 197 -84 224 -21 224 126 c 2
 224 1342 l 1
 512 1342 l 1
 512 144 l 2
 512 -153 383 -293 67 -293 c 0
 37 -293 5 -292 -26 -285 c 1
EndSplineSet
EndChar

StartChar: uni01C8
Encoding: 456 456 483
Width: 1398
VWidth: 0
Flags: HW
LayerCount: 2
Fore
SplineSet
1341 1139 m 1
 1088 1139 l 1
 1088 1357 l 1
 1341 1357 l 1
 1341 1139 l 1
128 0 m 1
 128 1342 l 1
 416 1342 l 1
 416 213 l 1
 953 213 l 1
 946 0 l 1
 128 0 l 1
961 -379 m 2
 901 -379 l 1
 872 -187 l 1
 934 -187 l 2
 1075 -187 1088 -149 1088 -4 c 2
 1088 1017 l 1
 1341 1017 l 1
 1341 40 l 2
 1341 -240 1279 -379 961 -379 c 2
EndSplineSet
EndChar

StartChar: uni01C9
Encoding: 457 457 484
Width: 1068
VWidth: 0
Flags: HW
LayerCount: 2
Fore
SplineSet
844 1393 m 1
 844 387 l 2
 844 188 895 178 971 178 c 0
 1003 178 1039 185 1039 185 c 1
 1048 187 l 1
 1079 7 l 1
 1072 4 l 1
 1072 4 1004 -13 929 -13 c 0
 652 -13 591 124 591 401 c 2
 591 1376 l 1
 844 1393 l 1
404 1139 m 1
 151 1139 l 1
 151 1357 l 1
 404 1357 l 1
 404 1139 l 1
151 -4 m 2
 151 1017 l 1
 404 1017 l 1
 404 40 l 2
 404 -240 342 -379 24 -379 c 2
 -36 -379 l 1
 -65 -187 l 1
 -3 -187 l 2
 138 -187 151 -149 151 -4 c 2
EndSplineSet
EndChar

StartChar: uni01CA
Encoding: 458 458 485
Width: 1923
VWidth: 0
Flags: HW
LayerCount: 2
Fore
SplineSet
1571 384 m 1
 1570 461 1552 793 1552 801 c 2
 1552 1342 l 1
 1838 1342 l 1
 1838 0 l 1
 1531 0 l 1
 943 945 l 1
 943 945 971 430 971 409 c 2
 971 0 l 1
 686 0 l 1
 686 1342 l 1
 982 1342 l 1
 1571 384 l 1
-26 -285 m 1
 -38 -75 l 1
 1 -82 42 -84 65 -84 c 0
 197 -84 224 -21 224 126 c 2
 224 1342 l 1
 512 1342 l 1
 512 144 l 2
 512 -153 383 -293 67 -293 c 0
 37 -293 5 -292 -26 -285 c 1
EndSplineSet
EndChar

StartChar: uni01CB
Encoding: 459 459 486
Width: 1828
VWidth: 0
Flags: HW
LayerCount: 2
Fore
SplineSet
1771 1139 m 1
 1518 1139 l 1
 1518 1357 l 1
 1771 1357 l 1
 1771 1139 l 1
1518 -4 m 2
 1518 1017 l 1
 1771 1017 l 1
 1771 40 l 2
 1771 -240 1709 -379 1391 -379 c 2
 1331 -379 l 1
 1302 -187 l 1
 1364 -187 l 2
 1505 -187 1518 -149 1518 -4 c 2
426 1342 m 1
 1015 384 l 1
 1014 461 996 793 996 801 c 2
 996 1342 l 1
 1282 1342 l 1
 1282 0 l 1
 975 0 l 1
 387 945 l 1
 387 945 415 430 415 409 c 2
 415 0 l 1
 130 0 l 1
 130 1342 l 1
 426 1342 l 1
EndSplineSet
EndChar

StartChar: uni01CC
Encoding: 460 460 487
Width: 1561
VWidth: 0
Flags: HW
LayerCount: 2
Fore
SplineSet
404 1139 m 1
 151 1139 l 1
 151 1357 l 1
 404 1357 l 1
 404 1139 l 1
151 -4 m 2
 151 1017 l 1
 404 1017 l 1
 404 40 l 2
 404 -240 342 -379 24 -379 c 2
 -36 -379 l 1
 -65 -187 l 1
 -3 -187 l 2
 138 -187 151 -149 151 -4 c 2
845 496 m 2
 845 0 l 1
 591 0 l 1
 591 1017 l 1
 797 1017 l 1
 821 902 l 1
 901 979 1001 1041 1142 1041 c 0
 1377 1041 1490 891 1490 640 c 2
 1490 0 l 1
 1236 0 l 1
 1236 612 l 1
 1235 761 1203 844 1077 844 c 0
 979 844 897 789 861 713 c 1
 848 656 845 582 845 496 c 2
EndSplineSet
EndChar

StartChar: uni01F1
Encoding: 497 497 515
Width: 2391
VWidth: 0
Flags: HW
LayerCount: 2
Fore
SplineSet
418 1122 m 1
 418 220 l 1
 565 220 l 2
 855 220 995 377 995 671 c 0
 995 992 847 1122 539 1122 c 2
 418 1122 l 1
130 0 m 1
 130 1342 l 1
 528 1342 l 2
 977 1342 1282 1130 1282 676 c 0
 1282 238 994 0 551 0 c 2
 130 0 l 1
1424 1342 m 1
 2385 1342 l 1
 2385 1150 l 1
 1726 220 l 1
 2391 220 l 1
 2389 0 l 1
 1401 0 l 1
 1401 172 l 1
 2073 1122 l 1
 1423 1122 l 1
 1424 1342 l 1
EndSplineSet
EndChar

StartChar: uni01F2
Encoding: 498 498 516
Width: 2184
VWidth: 0
Flags: HW
LayerCount: 2
Fore
SplineSet
1282 676 m 0
 1282 238 994 0 551 0 c 2
 130 0 l 1
 130 1342 l 1
 528 1342 l 2
 977 1342 1282 1130 1282 676 c 0
539 1122 m 2
 418 1122 l 1
 418 220 l 1
 565 220 l 2
 855 220 995 377 995 671 c 0
 995 992 847 1122 539 1122 c 2
2173 0 m 1
 1406 0 l 1
 1403 3 l 1
 1403 158 l 1
 1870 832 l 1
 1425 832 l 1
 1425 1017 l 1
 2157 1017 l 1
 2157 840 l 1
 1715 192 l 1
 2173 192 l 1
 2173 0 l 1
EndSplineSet
EndChar

StartChar: uni01F3
Encoding: 499 499 517
Width: 1958
VWidth: 0
Flags: HW
LayerCount: 2
Fore
SplineSet
1644 832 m 1
 1199 832 l 1
 1199 1017 l 1
 1931 1017 l 1
 1931 840 l 1
 1489 192 l 1
 1947 192 l 1
 1947 0 l 1
 1180 0 l 1
 1177 3 l 1
 1177 158 l 1
 1644 832 l 1
330 512 m 0
 330 285 422 179 550 179 c 0
 689 179 772 267 774 497 c 1
 774 748 693 843 548 843 c 0
 423 843 330 742 330 512 c 0
771 920 m 1
 767 963 765 1017 765 1052 c 2
 765 1376 l 1
 1019 1393 l 1
 1019 0 l 1
 799 0 l 1
 775 117 l 1
 735 55 663 -17 494 -17 c 0
 233 -17 78 200 78 517 c 0
 78 826 232 1041 494 1041 c 0
 646 1041 727 978 771 920 c 1
EndSplineSet
EndChar

StartChar: uni0237
Encoding: 567 567 564
Width: 461
VWidth: 0
Flags: HW
LayerCount: 2
Fore
SplineSet
-39 -322 m 1
 -44 -127 l 1
 -3 -127 l 2
 137 -127 148 -88 148 61 c 2
 148 988 l 1
 379 988 l 1
 379 99 l 2
 379 -183 310 -322 6 -322 c 2
 -39 -322 l 1
EndSplineSet
EndChar

StartChar: uni0307
Encoding: 775 775 566
Width: 451
VWidth: 0
Flags: HW
LayerCount: 2
Fore
SplineSet
135 1095 m 1
 135 1307 l 1
 333 1307 l 1
 333 1095 l 1
 135 1095 l 1
EndSplineSet
EndChar

StartChar: uni030F
Encoding: 783 783 567
Width: 866
VWidth: 0
Flags: HW
LayerCount: 2
Fore
SplineSet
282 1083 m 1
 -13 1405 l 1
 259 1405 l 1
 454 1083 l 1
 282 1083 l 1
610 1083 m 1
 323 1405 l 1
 585 1405 l 1
 801 1083 l 1
 610 1083 l 1
EndSplineSet
EndChar

StartChar: uni0311
Encoding: 785 785 568
Width: 625
VWidth: 0
Flags: HW
LayerCount: 2
Fore
SplineSet
587 1122 m 2
 587 1112 l 1
 418 1112 l 1
 418 1122 l 2
 418 1181 368 1207 316 1207 c 0
 265 1207 217 1180 217 1122 c 2
 217 1112 l 1
 49 1112 l 1
 49 1122 l 2
 49 1272 186 1344 320 1344 c 0
 452 1344 587 1273 587 1122 c 2
EndSplineSet
EndChar

StartChar: uni0326
Encoding: 806 806 569
Width: 490
VWidth: 0
Flags: HW
LayerCount: 2
Fore
SplineSet
69 -599 m 1
 170 -120 l 1
 392 -120 l 1
 237 -599 l 1
 69 -599 l 1
EndSplineSet
EndChar

StartChar: uni0400
Encoding: 1024 1024 570
Width: 1108
VWidth: 0
Flags: HW
LayerCount: 2
Fore
SplineSet
690 1452 m 1
 525 1452 l 1
 214 1813 l 1
 513 1813 l 1
 690 1452 l 1
EndSplineSet
EndChar

StartChar: uni2074
Encoding: 8308 8308 592
Width: 763
VWidth: 0
Flags: HW
LayerCount: 2
Fore
SplineSet
386 1317 m 1
 544 1317 l 1
 544 868 l 1
 634 868 l 1
 648 711 l 1
 543 711 l 1
 542 557 l 1
 382 557 l 1
 382 711 l 1
 69 711 l 1
 69 832 l 1
 386 1317 l 1
380 1042 m 1
 274 868 l 1
 380 868 l 1
 380 1042 l 1
EndSplineSet
EndChar

StartChar: uniFB01
Encoding: 64257 64257 593
Width: 1038
VWidth: 0
Flags: HW
LayerCount: 2
Fore
SplineSet
3 853 m 1
 3 1016 l 1
 157 1016 l 1
 157 1035 l 1
 159 1282 205 1412 514 1412 c 2
 581 1412 l 1
 602 1224 l 1
 530 1224 l 2
 413 1224 401 1187 401 1067 c 2
 401 1016 l 1
 953 1016 l 1
 953 0 l 1
 706 0 l 1
 706 837 l 1
 401 837 l 1
 401 0 l 1
 157 0 l 1
 157 853 l 1
 3 853 l 1
706 1139 m 1
 706 1357 l 1
 953 1357 l 1
 953 1139 l 1
 706 1139 l 1
EndSplineSet
EndChar

StartChar: uniFB02
Encoding: 64258 64258 594
Width: 1227
VWidth: 0
Flags: HW
LayerCount: 2
Fore
SplineSet
579 1222 m 0
 432 1222 403 1181 402 1067 c 1
 402 1016 l 1
 611 1016 l 1
 611 853 l 1
 402 853 l 1
 402 0 l 1
 157 0 l 1
 157 853 l 1
 3 853 l 1
 3 1016 l 1
 157 1016 l 1
 157 1047 l 1
 159 1295 274 1408 543 1408 c 0
 702 1408 927 1375 1008 1370 c 1
 1017 1369 l 1
 1017 390 l 2
 1017 227 1024 180 1156 180 c 0
 1197 180 1199 183 1212 184 c 2
 1222 185 l 1
 1235 2 l 1
 1226 1 l 2
 1206 -2 1164 -12 1096 -12 c 0
 811 -12 772 162 772 428 c 2
 772 1209 l 1
 730 1213 650 1222 579 1222 c 0
EndSplineSet
EndChar

StartChar: upsilon
Encoding: 965 965 596
Width: 407
VWidth: 0
Flags: HW
LayerCount: 2
Fore
SplineSet
215 483 m 0
 131 483 87 547 87 610 c 0
 87 673 131 737 215 737 c 0
 300 737 342 673 342 610 c 0
 342 547 300 483 215 483 c 0
EndSplineSet
EndChar

StartChar: upsilondieresis
Encoding: 971 971 597
Width: 407
VWidth: 0
Flags: HW
LayerCount: 2
Fore
SplineSet
215 483 m 0
 131 483 87 547 87 610 c 0
 87 673 131 737 215 737 c 0
 300 737 342 673 342 610 c 0
 342 547 300 483 215 483 c 0
EndSplineSet
EndChar

StartChar: upsilondieresistonos
Encoding: 944 944 598
Width: 407
VWidth: 0
Flags: HW
LayerCount: 2
Fore
SplineSet
215 483 m 0
 131 483 87 547 87 610 c 0
 87 673 131 737 215 737 c 0
 300 737 342 673 342 610 c 0
 342 547 300 483 215 483 c 0
EndSplineSet
EndChar

StartChar: upsilontonos
Encoding: 973 973 599
Width: 407
VWidth: 0
Flags: HW
LayerCount: 2
Fore
SplineSet
215 483 m 0
 131 483 87 547 87 610 c 0
 87 673 131 737 215 737 c 0
 300 737 342 673 342 610 c 0
 342 547 300 483 215 483 c 0
EndSplineSet
EndChar

StartChar: v
Encoding: 118 118 602
Width: 1038
VWidth: 0
Flags: HW
LayerCount: 2
Fore
SplineSet
533 275 m 1
 547 331 577 453 584 471 c 1
 760 1016 l 1
 1028 1016 l 1
 653 0 l 1
 407 0 l 1
 10 1016 l 1
 281 1016 l 1
 471 472 l 2
 477 455 514 338 533 275 c 1
EndSplineSet
EndChar

StartChar: w
Encoding: 119 119 603
Width: 1595
VWidth: 0
Flags: HW
LayerCount: 2
Fore
SplineSet
338 0 m 1
 582 0 l 1
 797 749 l 1
 839 599 980 74 999 0 c 1
 1245 0 l 1
 1548 1016 l 1
 1302 1016 l 1
 1117 300 l 1
 1077 446 928 1004 928 1016 c 1
 674 1016 l 1
 475 298 l 1
 296 1016 l 1
 47 1016 l 1
 338 0 l 1
EndSplineSet
EndChar

StartChar: x
Encoding: 120 120 608
Width: 1057
VWidth: 0
Flags: HW
LayerCount: 2
Fore
SplineSet
529 688 m 1
 745 1017 l 1
 1029 1017 l 1
 690 521 l 1
 1040 0 l 1
 749 0 l 1
 529 355 l 1
 304 0 l 1
 17 0 l 1
 370 520 l 1
 34 1017 l 1
 322 1017 l 1
 529 688 l 1
EndSplineSet
EndChar

StartChar: xi
Encoding: 958 958 609
Width: 407
VWidth: 0
Flags: HW
LayerCount: 2
Fore
SplineSet
215 483 m 0
 131 483 87 547 87 610 c 0
 87 673 131 737 215 737 c 0
 300 737 342 673 342 610 c 0
 342 547 300 483 215 483 c 0
EndSplineSet
EndChar

StartChar: y
Encoding: 121 121 610
Width: 1048
VWidth: 0
Flags: HW
LayerCount: 2
Fore
SplineSet
205 -411 m 0
 164 -411 122 -409 74 -403 c 1
 61 -201 l 1
 105 -208 141 -209 176 -209 c 0
 278 -209 333 -178 375 -68 c 0
 387 -39 395 -11 408 28 c 1
 14 1016 l 1
 285 1016 l 1
 530 330 l 1
 757 1016 l 1
 1028 1016 l 1
 1024 1002 619 -90 615 -99 c 0
 529 -323 406 -411 205 -411 c 0
EndSplineSet
EndChar

StartChar: yen
Encoding: 165 165 614
Width: 1046
VWidth: 0
Flags: HW
LayerCount: 2
Fore
SplineSet
413 422 m 1
 413 527 l 1
 108 527 l 1
 108 683 l 1
 337 683 l 1
 -51 1336 l 1
 226 1336 l 1
 537 784 l 1
 847 1336 l 1
 1119 1336 l 1
 738 683 l 1
 975 683 l 1
 975 527 l 1
 666 527 l 1
 666 422 l 1
 975 422 l 1
 975 257 l 1
 666 257 l 1
 666 0 l 1
 413 0 l 1
 413 257 l 1
 108 257 l 1
 108 422 l 1
 413 422 l 1
EndSplineSet
EndChar

StartChar: z
Encoding: 122 122 616
Width: 902
VWidth: 0
Flags: HW
LayerCount: 2
Fore
SplineSet
98 1016 m 1
 830 1016 l 1
 830 840 l 1
 388 192 l 1
 846 192 l 1
 846 0 l 1
 76 0 l 1
 76 158 l 1
 543 832 l 1
 98 832 l 1
 98 1016 l 1
EndSplineSet
EndChar

StartChar: zero
Encoding: 48 48 620
Width: 1139
VWidth: 0
Flags: HW
LayerCount: 2
Fore
SplineSet
569 206 m 0
 754 206 803 438 803 687 c 0
 803 933 754 1159 569 1159 c 0
 386 1159 336 935 334 690 c 1
 334 440 384 206 569 206 c 0
569 1 m 0
 201 1 74 327 74 680 c 0
 74 1041 205 1363 569 1363 c 0
 935 1363 1065 1038 1065 680 c 0
 1065 327 938 1 569 1 c 0
EndSplineSet
EndChar

StartChar: zeta
Encoding: 950 950 621
Width: 407
VWidth: 0
Flags: HW
LayerCount: 2
Fore
SplineSet
215 483 m 0
 131 483 87 547 87 610 c 0
 87 673 131 737 215 737 c 0
 300 737 342 673 342 610 c 0
 342 547 300 483 215 483 c 0
EndSplineSet
EndChar
